<?xml version="1.0" encoding="utf-8" standalone="no"?>
<!DOCTYPE svg PUBLIC "-//W3C//DTD SVG 1.1//EN"
  "http://www.w3.org/Graphics/SVG/1.1/DTD/svg11.dtd">
<svg xmlns:xlink="http://www.w3.org/1999/xlink" width="460.8pt" height="345.6pt" viewBox="0 0 460.8 345.6" xmlns="http://www.w3.org/2000/svg" version="1.1">
 <metadata>
  <rdf:RDF xmlns:dc="http://purl.org/dc/elements/1.1/" xmlns:cc="http://creativecommons.org/ns#" xmlns:rdf="http://www.w3.org/1999/02/22-rdf-syntax-ns#">
   <cc:Work>
    <dc:type rdf:resource="http://purl.org/dc/dcmitype/StillImage"/>
    <dc:date>2024-09-13T00:29:31.920208</dc:date>
    <dc:format>image/svg+xml</dc:format>
    <dc:creator>
     <cc:Agent>
      <dc:title>Matplotlib v3.8.4, https://matplotlib.org/</dc:title>
     </cc:Agent>
    </dc:creator>
   </cc:Work>
  </rdf:RDF>
 </metadata>
 <defs>
  <style type="text/css">*{stroke-linejoin: round; stroke-linecap: butt}</style>
 </defs>
 <g id="figure_1">
  <g id="patch_1">
   <path d="M 0 345.6 
L 460.8 345.6 
L 460.8 0 
L 0 0 
z
" style="fill: #ffffff"/>
  </g>
  <g id="axes_1">
   <g id="patch_2">
    <path d="M 57.6 307.584 
L 414.72 307.584 
L 414.72 41.472 
L 57.6 41.472 
z
" style="fill: #ffffff"/>
   </g>
   <g id="matplotlib.axis_1">
    <g id="xtick_1">
     <g id="line2d_1">
      <defs>
       <path id="m08a9f96810" d="M 0 0 
L 0 3.5 
" style="stroke: #000000; stroke-width: 0.8"/>
      </defs>
      <g>
       <use xlink:href="#m08a9f96810" x="73.832727" y="307.584" style="stroke: #000000; stroke-width: 0.8"/>
      </g>
     </g>
     <g id="text_1">
      <!-- 0 -->
      <g transform="translate(70.651477 322.182437) scale(0.1 -0.1)">
       <defs>
        <path id="DejaVuSans-30" d="M 2034 4250 
Q 1547 4250 1301 3770 
Q 1056 3291 1056 2328 
Q 1056 1369 1301 889 
Q 1547 409 2034 409 
Q 2525 409 2770 889 
Q 3016 1369 3016 2328 
Q 3016 3291 2770 3770 
Q 2525 4250 2034 4250 
z
M 2034 4750 
Q 2819 4750 3233 4129 
Q 3647 3509 3647 2328 
Q 3647 1150 3233 529 
Q 2819 -91 2034 -91 
Q 1250 -91 836 529 
Q 422 1150 422 2328 
Q 422 3509 836 4129 
Q 1250 4750 2034 4750 
z
" transform="scale(0.015625)"/>
       </defs>
       <use xlink:href="#DejaVuSans-30"/>
      </g>
     </g>
    </g>
    <g id="xtick_2">
     <g id="line2d_2">
      <g>
       <use xlink:href="#m08a9f96810" x="139.024403" y="307.584" style="stroke: #000000; stroke-width: 0.8"/>
      </g>
     </g>
     <g id="text_2">
      <!-- 100 -->
      <g transform="translate(129.480653 322.182437) scale(0.1 -0.1)">
       <defs>
        <path id="DejaVuSans-31" d="M 794 531 
L 1825 531 
L 1825 4091 
L 703 3866 
L 703 4441 
L 1819 4666 
L 2450 4666 
L 2450 531 
L 3481 531 
L 3481 0 
L 794 0 
L 794 531 
z
" transform="scale(0.015625)"/>
       </defs>
       <use xlink:href="#DejaVuSans-31"/>
       <use xlink:href="#DejaVuSans-30" x="63.623047"/>
       <use xlink:href="#DejaVuSans-30" x="127.246094"/>
      </g>
     </g>
    </g>
    <g id="xtick_3">
     <g id="line2d_3">
      <g>
       <use xlink:href="#m08a9f96810" x="204.216079" y="307.584" style="stroke: #000000; stroke-width: 0.8"/>
      </g>
     </g>
     <g id="text_3">
      <!-- 200 -->
      <g transform="translate(194.672329 322.182437) scale(0.1 -0.1)">
       <defs>
        <path id="DejaVuSans-32" d="M 1228 531 
L 3431 531 
L 3431 0 
L 469 0 
L 469 531 
Q 828 903 1448 1529 
Q 2069 2156 2228 2338 
Q 2531 2678 2651 2914 
Q 2772 3150 2772 3378 
Q 2772 3750 2511 3984 
Q 2250 4219 1831 4219 
Q 1534 4219 1204 4116 
Q 875 4013 500 3803 
L 500 4441 
Q 881 4594 1212 4672 
Q 1544 4750 1819 4750 
Q 2544 4750 2975 4387 
Q 3406 4025 3406 3419 
Q 3406 3131 3298 2873 
Q 3191 2616 2906 2266 
Q 2828 2175 2409 1742 
Q 1991 1309 1228 531 
z
" transform="scale(0.015625)"/>
       </defs>
       <use xlink:href="#DejaVuSans-32"/>
       <use xlink:href="#DejaVuSans-30" x="63.623047"/>
       <use xlink:href="#DejaVuSans-30" x="127.246094"/>
      </g>
     </g>
    </g>
    <g id="xtick_4">
     <g id="line2d_4">
      <g>
       <use xlink:href="#m08a9f96810" x="269.407755" y="307.584" style="stroke: #000000; stroke-width: 0.8"/>
      </g>
     </g>
     <g id="text_4">
      <!-- 300 -->
      <g transform="translate(259.864005 322.182437) scale(0.1 -0.1)">
       <defs>
        <path id="DejaVuSans-33" d="M 2597 2516 
Q 3050 2419 3304 2112 
Q 3559 1806 3559 1356 
Q 3559 666 3084 287 
Q 2609 -91 1734 -91 
Q 1441 -91 1130 -33 
Q 819 25 488 141 
L 488 750 
Q 750 597 1062 519 
Q 1375 441 1716 441 
Q 2309 441 2620 675 
Q 2931 909 2931 1356 
Q 2931 1769 2642 2001 
Q 2353 2234 1838 2234 
L 1294 2234 
L 1294 2753 
L 1863 2753 
Q 2328 2753 2575 2939 
Q 2822 3125 2822 3475 
Q 2822 3834 2567 4026 
Q 2313 4219 1838 4219 
Q 1578 4219 1281 4162 
Q 984 4106 628 3988 
L 628 4550 
Q 988 4650 1302 4700 
Q 1616 4750 1894 4750 
Q 2613 4750 3031 4423 
Q 3450 4097 3450 3541 
Q 3450 3153 3228 2886 
Q 3006 2619 2597 2516 
z
" transform="scale(0.015625)"/>
       </defs>
       <use xlink:href="#DejaVuSans-33"/>
       <use xlink:href="#DejaVuSans-30" x="63.623047"/>
       <use xlink:href="#DejaVuSans-30" x="127.246094"/>
      </g>
     </g>
    </g>
    <g id="xtick_5">
     <g id="line2d_5">
      <g>
       <use xlink:href="#m08a9f96810" x="334.59943" y="307.584" style="stroke: #000000; stroke-width: 0.8"/>
      </g>
     </g>
     <g id="text_5">
      <!-- 400 -->
      <g transform="translate(325.05568 322.182437) scale(0.1 -0.1)">
       <defs>
        <path id="DejaVuSans-34" d="M 2419 4116 
L 825 1625 
L 2419 1625 
L 2419 4116 
z
M 2253 4666 
L 3047 4666 
L 3047 1625 
L 3713 1625 
L 3713 1100 
L 3047 1100 
L 3047 0 
L 2419 0 
L 2419 1100 
L 313 1100 
L 313 1709 
L 2253 4666 
z
" transform="scale(0.015625)"/>
       </defs>
       <use xlink:href="#DejaVuSans-34"/>
       <use xlink:href="#DejaVuSans-30" x="63.623047"/>
       <use xlink:href="#DejaVuSans-30" x="127.246094"/>
      </g>
     </g>
    </g>
    <g id="xtick_6">
     <g id="line2d_6">
      <g>
       <use xlink:href="#m08a9f96810" x="399.791106" y="307.584" style="stroke: #000000; stroke-width: 0.8"/>
      </g>
     </g>
     <g id="text_6">
      <!-- 500 -->
      <g transform="translate(390.247356 322.182437) scale(0.1 -0.1)">
       <defs>
        <path id="DejaVuSans-35" d="M 691 4666 
L 3169 4666 
L 3169 4134 
L 1269 4134 
L 1269 2991 
Q 1406 3038 1543 3061 
Q 1681 3084 1819 3084 
Q 2600 3084 3056 2656 
Q 3513 2228 3513 1497 
Q 3513 744 3044 326 
Q 2575 -91 1722 -91 
Q 1428 -91 1123 -41 
Q 819 9 494 109 
L 494 744 
Q 775 591 1075 516 
Q 1375 441 1709 441 
Q 2250 441 2565 725 
Q 2881 1009 2881 1497 
Q 2881 1984 2565 2268 
Q 2250 2553 1709 2553 
Q 1456 2553 1204 2497 
Q 953 2441 691 2322 
L 691 4666 
z
" transform="scale(0.015625)"/>
       </defs>
       <use xlink:href="#DejaVuSans-35"/>
       <use xlink:href="#DejaVuSans-30" x="63.623047"/>
       <use xlink:href="#DejaVuSans-30" x="127.246094"/>
      </g>
     </g>
    </g>
    <g id="text_7">
     <!-- Tamano de la grilla -->
     <g transform="translate(188.7725 335.860562) scale(0.1 -0.1)">
      <defs>
       <path id="DejaVuSans-54" d="M -19 4666 
L 3928 4666 
L 3928 4134 
L 2272 4134 
L 2272 0 
L 1638 0 
L 1638 4134 
L -19 4134 
L -19 4666 
z
" transform="scale(0.015625)"/>
       <path id="DejaVuSans-61" d="M 2194 1759 
Q 1497 1759 1228 1600 
Q 959 1441 959 1056 
Q 959 750 1161 570 
Q 1363 391 1709 391 
Q 2188 391 2477 730 
Q 2766 1069 2766 1631 
L 2766 1759 
L 2194 1759 
z
M 3341 1997 
L 3341 0 
L 2766 0 
L 2766 531 
Q 2569 213 2275 61 
Q 1981 -91 1556 -91 
Q 1019 -91 701 211 
Q 384 513 384 1019 
Q 384 1609 779 1909 
Q 1175 2209 1959 2209 
L 2766 2209 
L 2766 2266 
Q 2766 2663 2505 2880 
Q 2244 3097 1772 3097 
Q 1472 3097 1187 3025 
Q 903 2953 641 2809 
L 641 3341 
Q 956 3463 1253 3523 
Q 1550 3584 1831 3584 
Q 2591 3584 2966 3190 
Q 3341 2797 3341 1997 
z
" transform="scale(0.015625)"/>
       <path id="DejaVuSans-6d" d="M 3328 2828 
Q 3544 3216 3844 3400 
Q 4144 3584 4550 3584 
Q 5097 3584 5394 3201 
Q 5691 2819 5691 2113 
L 5691 0 
L 5113 0 
L 5113 2094 
Q 5113 2597 4934 2840 
Q 4756 3084 4391 3084 
Q 3944 3084 3684 2787 
Q 3425 2491 3425 1978 
L 3425 0 
L 2847 0 
L 2847 2094 
Q 2847 2600 2669 2842 
Q 2491 3084 2119 3084 
Q 1678 3084 1418 2786 
Q 1159 2488 1159 1978 
L 1159 0 
L 581 0 
L 581 3500 
L 1159 3500 
L 1159 2956 
Q 1356 3278 1631 3431 
Q 1906 3584 2284 3584 
Q 2666 3584 2933 3390 
Q 3200 3197 3328 2828 
z
" transform="scale(0.015625)"/>
       <path id="DejaVuSans-6e" d="M 3513 2113 
L 3513 0 
L 2938 0 
L 2938 2094 
Q 2938 2591 2744 2837 
Q 2550 3084 2163 3084 
Q 1697 3084 1428 2787 
Q 1159 2491 1159 1978 
L 1159 0 
L 581 0 
L 581 3500 
L 1159 3500 
L 1159 2956 
Q 1366 3272 1645 3428 
Q 1925 3584 2291 3584 
Q 2894 3584 3203 3211 
Q 3513 2838 3513 2113 
z
" transform="scale(0.015625)"/>
       <path id="DejaVuSans-6f" d="M 1959 3097 
Q 1497 3097 1228 2736 
Q 959 2375 959 1747 
Q 959 1119 1226 758 
Q 1494 397 1959 397 
Q 2419 397 2687 759 
Q 2956 1122 2956 1747 
Q 2956 2369 2687 2733 
Q 2419 3097 1959 3097 
z
M 1959 3584 
Q 2709 3584 3137 3096 
Q 3566 2609 3566 1747 
Q 3566 888 3137 398 
Q 2709 -91 1959 -91 
Q 1206 -91 779 398 
Q 353 888 353 1747 
Q 353 2609 779 3096 
Q 1206 3584 1959 3584 
z
" transform="scale(0.015625)"/>
       <path id="DejaVuSans-20" transform="scale(0.015625)"/>
       <path id="DejaVuSans-64" d="M 2906 2969 
L 2906 4863 
L 3481 4863 
L 3481 0 
L 2906 0 
L 2906 525 
Q 2725 213 2448 61 
Q 2172 -91 1784 -91 
Q 1150 -91 751 415 
Q 353 922 353 1747 
Q 353 2572 751 3078 
Q 1150 3584 1784 3584 
Q 2172 3584 2448 3432 
Q 2725 3281 2906 2969 
z
M 947 1747 
Q 947 1113 1208 752 
Q 1469 391 1925 391 
Q 2381 391 2643 752 
Q 2906 1113 2906 1747 
Q 2906 2381 2643 2742 
Q 2381 3103 1925 3103 
Q 1469 3103 1208 2742 
Q 947 2381 947 1747 
z
" transform="scale(0.015625)"/>
       <path id="DejaVuSans-65" d="M 3597 1894 
L 3597 1613 
L 953 1613 
Q 991 1019 1311 708 
Q 1631 397 2203 397 
Q 2534 397 2845 478 
Q 3156 559 3463 722 
L 3463 178 
Q 3153 47 2828 -22 
Q 2503 -91 2169 -91 
Q 1331 -91 842 396 
Q 353 884 353 1716 
Q 353 2575 817 3079 
Q 1281 3584 2069 3584 
Q 2775 3584 3186 3129 
Q 3597 2675 3597 1894 
z
M 3022 2063 
Q 3016 2534 2758 2815 
Q 2500 3097 2075 3097 
Q 1594 3097 1305 2825 
Q 1016 2553 972 2059 
L 3022 2063 
z
" transform="scale(0.015625)"/>
       <path id="DejaVuSans-6c" d="M 603 4863 
L 1178 4863 
L 1178 0 
L 603 0 
L 603 4863 
z
" transform="scale(0.015625)"/>
       <path id="DejaVuSans-67" d="M 2906 1791 
Q 2906 2416 2648 2759 
Q 2391 3103 1925 3103 
Q 1463 3103 1205 2759 
Q 947 2416 947 1791 
Q 947 1169 1205 825 
Q 1463 481 1925 481 
Q 2391 481 2648 825 
Q 2906 1169 2906 1791 
z
M 3481 434 
Q 3481 -459 3084 -895 
Q 2688 -1331 1869 -1331 
Q 1566 -1331 1297 -1286 
Q 1028 -1241 775 -1147 
L 775 -588 
Q 1028 -725 1275 -790 
Q 1522 -856 1778 -856 
Q 2344 -856 2625 -561 
Q 2906 -266 2906 331 
L 2906 616 
Q 2728 306 2450 153 
Q 2172 0 1784 0 
Q 1141 0 747 490 
Q 353 981 353 1791 
Q 353 2603 747 3093 
Q 1141 3584 1784 3584 
Q 2172 3584 2450 3431 
Q 2728 3278 2906 2969 
L 2906 3500 
L 3481 3500 
L 3481 434 
z
" transform="scale(0.015625)"/>
       <path id="DejaVuSans-72" d="M 2631 2963 
Q 2534 3019 2420 3045 
Q 2306 3072 2169 3072 
Q 1681 3072 1420 2755 
Q 1159 2438 1159 1844 
L 1159 0 
L 581 0 
L 581 3500 
L 1159 3500 
L 1159 2956 
Q 1341 3275 1631 3429 
Q 1922 3584 2338 3584 
Q 2397 3584 2469 3576 
Q 2541 3569 2628 3553 
L 2631 2963 
z
" transform="scale(0.015625)"/>
       <path id="DejaVuSans-69" d="M 603 3500 
L 1178 3500 
L 1178 0 
L 603 0 
L 603 3500 
z
M 603 4863 
L 1178 4863 
L 1178 4134 
L 603 4134 
L 603 4863 
z
" transform="scale(0.015625)"/>
      </defs>
      <use xlink:href="#DejaVuSans-54"/>
      <use xlink:href="#DejaVuSans-61" x="44.583984"/>
      <use xlink:href="#DejaVuSans-6d" x="105.863281"/>
      <use xlink:href="#DejaVuSans-61" x="203.275391"/>
      <use xlink:href="#DejaVuSans-6e" x="264.554688"/>
      <use xlink:href="#DejaVuSans-6f" x="327.933594"/>
      <use xlink:href="#DejaVuSans-20" x="389.115234"/>
      <use xlink:href="#DejaVuSans-64" x="420.902344"/>
      <use xlink:href="#DejaVuSans-65" x="484.378906"/>
      <use xlink:href="#DejaVuSans-20" x="545.902344"/>
      <use xlink:href="#DejaVuSans-6c" x="577.689453"/>
      <use xlink:href="#DejaVuSans-61" x="605.472656"/>
      <use xlink:href="#DejaVuSans-20" x="666.751953"/>
      <use xlink:href="#DejaVuSans-67" x="698.539062"/>
      <use xlink:href="#DejaVuSans-72" x="762.015625"/>
      <use xlink:href="#DejaVuSans-69" x="803.128906"/>
      <use xlink:href="#DejaVuSans-6c" x="830.912109"/>
      <use xlink:href="#DejaVuSans-6c" x="858.695312"/>
      <use xlink:href="#DejaVuSans-61" x="886.478516"/>
     </g>
    </g>
   </g>
   <g id="matplotlib.axis_2">
    <g id="ytick_1">
     <g id="line2d_7">
      <defs>
       <path id="m677582d74f" d="M 0 0 
L -3.5 0 
" style="stroke: #000000; stroke-width: 0.8"/>
      </defs>
      <g>
       <use xlink:href="#m677582d74f" x="57.6" y="295.49584" style="stroke: #000000; stroke-width: 0.8"/>
      </g>
     </g>
     <g id="text_8">
      <!-- 0.00 -->
      <g transform="translate(28.334375 299.295058) scale(0.1 -0.1)">
       <defs>
        <path id="DejaVuSans-2e" d="M 684 794 
L 1344 794 
L 1344 0 
L 684 0 
L 684 794 
z
" transform="scale(0.015625)"/>
       </defs>
       <use xlink:href="#DejaVuSans-30"/>
       <use xlink:href="#DejaVuSans-2e" x="63.623047"/>
       <use xlink:href="#DejaVuSans-30" x="95.410156"/>
       <use xlink:href="#DejaVuSans-30" x="159.033203"/>
      </g>
     </g>
    </g>
    <g id="ytick_2">
     <g id="line2d_8">
      <g>
       <use xlink:href="#m677582d74f" x="57.6" y="246.498292" style="stroke: #000000; stroke-width: 0.8"/>
      </g>
     </g>
     <g id="text_9">
      <!-- 0.02 -->
      <g transform="translate(28.334375 250.297511) scale(0.1 -0.1)">
       <use xlink:href="#DejaVuSans-30"/>
       <use xlink:href="#DejaVuSans-2e" x="63.623047"/>
       <use xlink:href="#DejaVuSans-30" x="95.410156"/>
       <use xlink:href="#DejaVuSans-32" x="159.033203"/>
      </g>
     </g>
    </g>
    <g id="ytick_3">
     <g id="line2d_9">
      <g>
       <use xlink:href="#m677582d74f" x="57.6" y="197.500745" style="stroke: #000000; stroke-width: 0.8"/>
      </g>
     </g>
     <g id="text_10">
      <!-- 0.04 -->
      <g transform="translate(28.334375 201.299964) scale(0.1 -0.1)">
       <use xlink:href="#DejaVuSans-30"/>
       <use xlink:href="#DejaVuSans-2e" x="63.623047"/>
       <use xlink:href="#DejaVuSans-30" x="95.410156"/>
       <use xlink:href="#DejaVuSans-34" x="159.033203"/>
      </g>
     </g>
    </g>
    <g id="ytick_4">
     <g id="line2d_10">
      <g>
       <use xlink:href="#m677582d74f" x="57.6" y="148.503198" style="stroke: #000000; stroke-width: 0.8"/>
      </g>
     </g>
     <g id="text_11">
      <!-- 0.06 -->
      <g transform="translate(28.334375 152.302416) scale(0.1 -0.1)">
       <defs>
        <path id="DejaVuSans-36" d="M 2113 2584 
Q 1688 2584 1439 2293 
Q 1191 2003 1191 1497 
Q 1191 994 1439 701 
Q 1688 409 2113 409 
Q 2538 409 2786 701 
Q 3034 994 3034 1497 
Q 3034 2003 2786 2293 
Q 2538 2584 2113 2584 
z
M 3366 4563 
L 3366 3988 
Q 3128 4100 2886 4159 
Q 2644 4219 2406 4219 
Q 1781 4219 1451 3797 
Q 1122 3375 1075 2522 
Q 1259 2794 1537 2939 
Q 1816 3084 2150 3084 
Q 2853 3084 3261 2657 
Q 3669 2231 3669 1497 
Q 3669 778 3244 343 
Q 2819 -91 2113 -91 
Q 1303 -91 875 529 
Q 447 1150 447 2328 
Q 447 3434 972 4092 
Q 1497 4750 2381 4750 
Q 2619 4750 2861 4703 
Q 3103 4656 3366 4563 
z
" transform="scale(0.015625)"/>
       </defs>
       <use xlink:href="#DejaVuSans-30"/>
       <use xlink:href="#DejaVuSans-2e" x="63.623047"/>
       <use xlink:href="#DejaVuSans-30" x="95.410156"/>
       <use xlink:href="#DejaVuSans-36" x="159.033203"/>
      </g>
     </g>
    </g>
    <g id="ytick_5">
     <g id="line2d_11">
      <g>
       <use xlink:href="#m677582d74f" x="57.6" y="99.50565" style="stroke: #000000; stroke-width: 0.8"/>
      </g>
     </g>
     <g id="text_12">
      <!-- 0.08 -->
      <g transform="translate(28.334375 103.304869) scale(0.1 -0.1)">
       <defs>
        <path id="DejaVuSans-38" d="M 2034 2216 
Q 1584 2216 1326 1975 
Q 1069 1734 1069 1313 
Q 1069 891 1326 650 
Q 1584 409 2034 409 
Q 2484 409 2743 651 
Q 3003 894 3003 1313 
Q 3003 1734 2745 1975 
Q 2488 2216 2034 2216 
z
M 1403 2484 
Q 997 2584 770 2862 
Q 544 3141 544 3541 
Q 544 4100 942 4425 
Q 1341 4750 2034 4750 
Q 2731 4750 3128 4425 
Q 3525 4100 3525 3541 
Q 3525 3141 3298 2862 
Q 3072 2584 2669 2484 
Q 3125 2378 3379 2068 
Q 3634 1759 3634 1313 
Q 3634 634 3220 271 
Q 2806 -91 2034 -91 
Q 1263 -91 848 271 
Q 434 634 434 1313 
Q 434 1759 690 2068 
Q 947 2378 1403 2484 
z
M 1172 3481 
Q 1172 3119 1398 2916 
Q 1625 2713 2034 2713 
Q 2441 2713 2670 2916 
Q 2900 3119 2900 3481 
Q 2900 3844 2670 4047 
Q 2441 4250 2034 4250 
Q 1625 4250 1398 4047 
Q 1172 3844 1172 3481 
z
" transform="scale(0.015625)"/>
       </defs>
       <use xlink:href="#DejaVuSans-30"/>
       <use xlink:href="#DejaVuSans-2e" x="63.623047"/>
       <use xlink:href="#DejaVuSans-30" x="95.410156"/>
       <use xlink:href="#DejaVuSans-38" x="159.033203"/>
      </g>
     </g>
    </g>
    <g id="ytick_6">
     <g id="line2d_12">
      <g>
       <use xlink:href="#m677582d74f" x="57.6" y="50.508103" style="stroke: #000000; stroke-width: 0.8"/>
      </g>
     </g>
     <g id="text_13">
      <!-- 0.10 -->
      <g transform="translate(28.334375 54.307322) scale(0.1 -0.1)">
       <use xlink:href="#DejaVuSans-30"/>
       <use xlink:href="#DejaVuSans-2e" x="63.623047"/>
       <use xlink:href="#DejaVuSans-31" x="95.410156"/>
       <use xlink:href="#DejaVuSans-30" x="159.033203"/>
      </g>
     </g>
    </g>
    <g id="text_14">
     <!-- Tiempo (s) -->
     <g transform="translate(22.254687 201.0905) rotate(-90) scale(0.1 -0.1)">
      <defs>
       <path id="DejaVuSans-70" d="M 1159 525 
L 1159 -1331 
L 581 -1331 
L 581 3500 
L 1159 3500 
L 1159 2969 
Q 1341 3281 1617 3432 
Q 1894 3584 2278 3584 
Q 2916 3584 3314 3078 
Q 3713 2572 3713 1747 
Q 3713 922 3314 415 
Q 2916 -91 2278 -91 
Q 1894 -91 1617 61 
Q 1341 213 1159 525 
z
M 3116 1747 
Q 3116 2381 2855 2742 
Q 2594 3103 2138 3103 
Q 1681 3103 1420 2742 
Q 1159 2381 1159 1747 
Q 1159 1113 1420 752 
Q 1681 391 2138 391 
Q 2594 391 2855 752 
Q 3116 1113 3116 1747 
z
" transform="scale(0.015625)"/>
       <path id="DejaVuSans-28" d="M 1984 4856 
Q 1566 4138 1362 3434 
Q 1159 2731 1159 2009 
Q 1159 1288 1364 580 
Q 1569 -128 1984 -844 
L 1484 -844 
Q 1016 -109 783 600 
Q 550 1309 550 2009 
Q 550 2706 781 3412 
Q 1013 4119 1484 4856 
L 1984 4856 
z
" transform="scale(0.015625)"/>
       <path id="DejaVuSans-73" d="M 2834 3397 
L 2834 2853 
Q 2591 2978 2328 3040 
Q 2066 3103 1784 3103 
Q 1356 3103 1142 2972 
Q 928 2841 928 2578 
Q 928 2378 1081 2264 
Q 1234 2150 1697 2047 
L 1894 2003 
Q 2506 1872 2764 1633 
Q 3022 1394 3022 966 
Q 3022 478 2636 193 
Q 2250 -91 1575 -91 
Q 1294 -91 989 -36 
Q 684 19 347 128 
L 347 722 
Q 666 556 975 473 
Q 1284 391 1588 391 
Q 1994 391 2212 530 
Q 2431 669 2431 922 
Q 2431 1156 2273 1281 
Q 2116 1406 1581 1522 
L 1381 1569 
Q 847 1681 609 1914 
Q 372 2147 372 2553 
Q 372 3047 722 3315 
Q 1072 3584 1716 3584 
Q 2034 3584 2315 3537 
Q 2597 3491 2834 3397 
z
" transform="scale(0.015625)"/>
       <path id="DejaVuSans-29" d="M 513 4856 
L 1013 4856 
Q 1481 4119 1714 3412 
Q 1947 2706 1947 2009 
Q 1947 1309 1714 600 
Q 1481 -109 1013 -844 
L 513 -844 
Q 928 -128 1133 580 
Q 1338 1288 1338 2009 
Q 1338 2731 1133 3434 
Q 928 4138 513 4856 
z
" transform="scale(0.015625)"/>
      </defs>
      <use xlink:href="#DejaVuSans-54"/>
      <use xlink:href="#DejaVuSans-69" x="57.958984"/>
      <use xlink:href="#DejaVuSans-65" x="85.742188"/>
      <use xlink:href="#DejaVuSans-6d" x="147.265625"/>
      <use xlink:href="#DejaVuSans-70" x="244.677734"/>
      <use xlink:href="#DejaVuSans-6f" x="308.154297"/>
      <use xlink:href="#DejaVuSans-20" x="369.335938"/>
      <use xlink:href="#DejaVuSans-28" x="401.123047"/>
      <use xlink:href="#DejaVuSans-73" x="440.136719"/>
      <use xlink:href="#DejaVuSans-29" x="492.236328"/>
     </g>
    </g>
   </g>
   <g id="line2d_13">
    <path d="M 73.832727 295.476486 
L 79.048061 295.434348 
L 89.478729 295.056087 
L 90.130646 294.889005 
L 90.782563 294.989695 
L 92.086396 294.885575 
L 92.738313 294.750342 
L 94.042147 294.777536 
L 94.694064 294.415934 
L 95.997897 294.630543 
L 99.257481 294.386045 
L 106.428565 293.689545 
L 107.080482 293.626828 
L 107.732399 293.169681 
L 108.384315 293.060417 
L 109.688149 293.292665 
L 111.643899 292.967566 
L 112.295816 292.463136 
L 112.947733 292.70102 
L 113.59965 292.801709 
L 114.903483 292.642467 
L 115.5554 291.941313 
L 116.207317 292.287235 
L 116.859233 292.349952 
L 117.51115 292.108884 
L 118.163067 292.138528 
L 118.814984 291.712984 
L 119.4669 291.963606 
L 120.770734 291.713964 
L 121.422651 291.374411 
L 122.074567 291.515279 
L 122.726484 291.460892 
L 123.378401 291.060582 
L 124.030318 290.996395 
L 124.682234 291.112519 
L 125.986068 290.716619 
L 126.637985 290.774926 
L 127.289901 290.609069 
L 127.941818 290.083816 
L 128.593735 290.438803 
L 129.245652 290.277356 
L 129.897568 289.873616 
L 130.549485 290.098025 
L 131.201402 289.874596 
L 131.853319 289.40128 
L 132.505235 289.708249 
L 133.157152 289.158987 
L 133.809069 289.380456 
L 135.112903 288.758432 
L 135.764819 288.996805 
L 136.416736 288.442398 
L 137.068653 288.611439 
L 137.72057 288.159437 
L 138.372486 288.255472 
L 139.024403 287.847322 
L 139.67632 288.090105 
L 140.328237 287.609194 
L 140.980153 287.806165 
L 141.63207 286.384501 
L 142.283987 287.60454 
L 142.935904 287.016079 
L 143.58782 287.066792 
L 144.239737 285.221299 
L 144.891654 284.99297 
L 145.543571 285.961652 
L 146.195487 286.006975 
L 147.499321 286.273276 
L 148.151238 285.163482 
L 148.803154 285.924169 
L 149.455071 285.843078 
L 150.106988 285.526554 
L 150.758905 285.465552 
L 151.410821 284.444688 
L 152.062738 285.150742 
L 152.714655 284.651702 
L 153.366572 285.112279 
L 155.322322 284.344733 
L 155.974239 284.435623 
L 156.626156 283.421374 
L 158.581906 283.502465 
L 161.189573 282.836098 
L 161.84149 282.290511 
L 162.493406 282.432114 
L 163.145323 282.429174 
L 163.79724 281.882606 
L 164.449157 281.777261 
L 165.101073 281.409045 
L 165.75299 281.484011 
L 167.056824 281.063612 
L 168.360657 277.330979 
L 169.012574 278.578701 
L 169.664491 278.930749 
L 170.316407 279.512595 
L 170.968324 279.067452 
L 171.620241 279.869052 
L 172.272158 278.385161 
L 172.924074 278.640683 
L 174.227908 278.595116 
L 174.879825 278.20926 
L 175.531742 278.133559 
L 176.183658 277.71561 
L 177.487492 277.389041 
L 178.139409 277.250868 
L 178.791325 276.877997 
L 179.443242 276.862317 
L 180.095159 276.266752 
L 180.747076 276.4086 
L 181.398992 275.460498 
L 182.050909 276.163122 
L 182.702826 276.127844 
L 183.354743 273.504025 
L 184.006659 274.244623 
L 184.658576 274.343598 
L 185.310493 272.697036 
L 185.96241 274.150793 
L 186.614326 273.032914 
L 187.266243 272.755588 
L 187.91816 273.246788 
L 188.570077 272.368262 
L 189.221993 272.539019 
L 189.87391 272.226904 
L 190.525827 271.602431 
L 191.177744 271.522565 
L 191.82966 270.249363 
L 192.481577 269.731459 
L 193.133494 268.570217 
L 193.785411 269.995311 
L 194.437327 268.8179 
L 195.089244 270.253038 
L 195.741161 269.91618 
L 196.393078 269.738319 
L 197.044995 269.72117 
L 197.696911 268.583692 
L 198.348828 266.028715 
L 199.000745 266.788422 
L 199.652662 266.602231 
L 201.608412 267.553028 
L 202.260329 266.550784 
L 203.564162 265.995151 
L 204.216079 266.351608 
L 204.867996 266.294526 
L 205.519912 265.833704 
L 207.475663 264.878007 
L 208.127579 262.089557 
L 208.779496 262.206171 
L 209.431413 264.085717 
L 210.08333 263.773358 
L 210.735246 263.335809 
L 211.387163 263.081512 
L 212.03908 262.116016 
L 212.690997 262.016795 
L 213.342913 261.706641 
L 213.99483 261.064283 
L 214.646747 260.931255 
L 215.298664 259.381952 
L 215.950581 259.682307 
L 216.602497 259.240839 
L 217.254414 259.772708 
L 217.906331 257.960534 
L 218.558248 257.668263 
L 219.210164 257.719466 
L 219.862081 255.748784 
L 220.513998 255.997692 
L 221.165915 255.090012 
L 221.817831 257.958574 
L 223.121665 257.189067 
L 223.773582 256.287757 
L 224.425498 256.332835 
L 226.381249 255.457494 
L 227.033165 254.796517 
L 227.685082 255.178943 
L 228.988916 254.214671 
L 229.640832 254.192867 
L 230.292749 253.409641 
L 230.944666 252.919421 
L 231.596583 252.992182 
L 232.248499 251.63838 
L 232.900416 252.092587 
L 233.552333 251.688357 
L 234.856166 251.266979 
L 235.508083 250.690277 
L 236.16 250.34166 
L 236.811917 250.367384 
L 237.463834 250.028566 
L 238.11575 249.142445 
L 238.767667 249.871528 
L 239.419584 248.968749 
L 240.071501 248.734295 
L 240.723417 248.890353 
L 241.375334 248.6461 
L 242.027251 248.03559 
L 242.679168 247.890068 
L 243.331084 247.586283 
L 243.983001 246.675908 
L 244.634918 246.798892 
L 245.286835 246.062704 
L 245.938751 246.030366 
L 246.590668 245.634466 
L 247.242585 242.845035 
L 247.894502 244.683423 
L 248.546418 244.456565 
L 249.198335 243.966834 
L 249.850252 242.93911 
L 250.502169 243.34285 
L 251.154085 241.896443 
L 251.806002 242.231831 
L 252.457919 236.466289 
L 253.109836 240.316517 
L 253.761752 238.240246 
L 254.413669 235.082354 
L 255.065586 236.895508 
L 255.717503 236.495933 
L 256.369419 233.810132 
L 257.673253 236.043686 
L 258.32517 230.06378 
L 258.977087 232.669959 
L 259.629003 232.704258 
L 260.28092 232.95635 
L 260.932837 234.733981 
L 262.23667 231.85709 
L 262.888587 233.85325 
L 264.192421 232.733656 
L 264.844337 231.793883 
L 265.496254 231.695888 
L 266.148171 229.900618 
L 266.800088 231.091749 
L 267.452004 229.650976 
L 268.103921 230.101018 
L 268.755838 226.76992 
L 269.407755 229.202158 
L 270.059671 228.75824 
L 270.711588 228.709978 
L 271.363505 228.183499 
L 272.015422 227.357155 
L 272.667338 227.119762 
L 273.319255 225.207143 
L 273.971172 226.128542 
L 274.623089 225.340416 
L 275.275005 224.743871 
L 275.926922 223.814633 
L 276.578839 216.744532 
L 277.230756 194.955322 
L 277.882673 209.397105 
L 278.534589 127.019243 
L 279.186506 198.443703 
L 279.838423 209.542872 
L 280.49034 205.89084 
L 281.142256 137.454986 
L 281.794173 214.960041 
L 282.44609 220.407098 
L 283.098007 220.796139 
L 283.749923 220.752776 
L 284.40184 218.835747 
L 285.053757 215.78124 
L 285.705674 216.68549 
L 286.35759 213.515103 
L 287.009507 216.071795 
L 287.661424 215.946852 
L 288.313341 215.065141 
L 288.965257 215.873355 
L 289.617174 214.164811 
L 290.269091 213.015818 
L 290.921008 212.838692 
L 292.224841 210.924848 
L 292.876758 209.48775 
L 293.528675 205.845272 
L 294.180591 206.273511 
L 294.832508 203.218514 
L 295.484425 206.719879 
L 296.136342 203.40005 
L 296.788258 208.226063 
L 297.440175 202.325289 
L 298.092092 200.856832 
L 298.744009 207.375466 
L 299.395926 202.707224 
L 300.047842 202.646712 
L 300.699759 203.231253 
L 301.351676 202.038163 
L 302.003593 198.514504 
L 302.655509 191.973087 
L 303.307426 202.40295 
L 303.959343 199.023834 
L 304.61126 201.040328 
L 305.263176 196.571262 
L 305.915093 195.223339 
L 307.218927 198.027959 
L 307.870843 191.363312 
L 308.52276 198.502745 
L 309.174677 198.549782 
L 309.826594 195.110645 
L 310.47851 195.046458 
L 311.130427 190.094521 
L 311.782344 193.339628 
L 312.434261 197.338563 
L 313.086177 196.217989 
L 313.738094 196.846383 
L 314.390011 195.706945 
L 315.041928 195.140288 
L 315.693844 195.142003 
L 316.345761 189.962962 
L 316.997678 190.525454 
L 317.649595 187.821525 
L 318.301512 189.074882 
L 318.953428 187.791391 
L 319.605345 188.096646 
L 320.257262 183.702056 
L 320.909179 182.995756 
L 321.561095 187.903595 
L 322.213012 188.957533 
L 322.864929 185.521825 
L 323.516846 180.906011 
L 324.168762 177.71872 
L 324.820679 175.171338 
L 325.472596 176.494762 
L 326.124513 181.440819 
L 327.428346 178.507091 
L 328.080263 178.684462 
L 328.73218 171.948524 
L 329.384096 167.395672 
L 330.036013 176.256633 
L 330.68793 178.345154 
L 331.339847 176.800751 
L 331.991763 175.873473 
L 332.64368 176.547924 
L 333.295597 174.32417 
L 333.947514 169.563079 
L 334.59943 171.790997 
L 335.251347 170.998952 
L 335.903264 171.63837 
L 336.555181 165.209646 
L 337.207097 163.7309 
L 337.859014 161.645565 
L 338.510931 160.998062 
L 339.162848 164.782388 
L 339.814765 166.364519 
L 340.466681 162.882263 
L 341.118598 161.156569 
L 341.770515 165.193477 
L 342.422432 166.289797 
L 343.074348 165.055059 
L 343.726265 97.819645 
L 344.378182 158.063354 
L 345.030099 132.67209 
L 345.682015 158.241215 
L 346.333932 161.348885 
L 346.985849 156.042205 
L 347.637766 153.703797 
L 348.289682 156.870264 
L 348.941599 123.454917 
L 349.593516 143.646561 
L 350.245433 153.037186 
L 351.549266 148.920412 
L 352.8531 144.791144 
L 353.505016 138.626762 
L 354.156933 150.527531 
L 354.80885 149.867044 
L 355.460767 146.792938 
L 356.112683 139.298274 
L 356.7646 139.17186 
L 357.416517 128.579325 
L 358.068434 145.795103 
L 358.72035 143.734266 
L 359.372267 135.166065 
L 360.024184 136.648241 
L 360.676101 137.836677 
L 361.328018 137.088239 
L 361.979934 140.110163 
L 362.631851 136.702628 
L 363.283768 136.38145 
L 363.935685 140.653791 
L 364.587601 139.413173 
L 365.239518 138.750971 
L 365.891435 134.212573 
L 366.543352 136.953496 
L 367.195268 131.820758 
L 367.847185 131.055906 
L 368.499102 132.311468 
L 369.151019 117.936078 
L 369.802935 91.381612 
L 370.454852 136.289089 
L 371.106769 132.317593 
L 371.758686 132.17746 
L 372.410602 131.626238 
L 373.062519 132.359976 
L 373.714436 130.684015 
L 374.366353 129.844932 
L 375.018269 130.246467 
L 376.322103 131.526283 
L 377.625936 130.000254 
L 378.277853 123.089395 
L 378.92977 127.451892 
L 379.581687 120.365376 
L 380.233604 115.054287 
L 380.88552 121.196375 
L 382.189354 112.369711 
L 382.841271 118.264116 
L 383.493187 117.89541 
L 384.145104 110.412504 
L 384.797021 116.027378 
L 385.448938 107.821269 
L 386.100854 105.631079 
L 386.752771 109.7993 
L 387.404688 107.185281 
L 388.056605 108.307325 
L 388.708521 53.568 
L 389.360438 96.198316 
L 390.012355 105.057808 
L 390.664272 105.186426 
L 391.316188 109.761082 
L 391.968105 107.718619 
L 392.620022 108.257592 
L 393.271939 106.935394 
L 393.923855 100.941524 
L 394.575772 107.186016 
L 395.227689 103.007505 
L 395.879606 102.840424 
L 396.531522 101.30386 
L 397.183439 106.00297 
L 397.835356 101.628959 
L 398.487273 99.376542 
L 398.487273 99.376542 
" clip-path="url(#pf7b0b7fb6a)" style="fill: none; stroke: #1f77b4; stroke-width: 1.5; stroke-linecap: square"/>
   </g>
   <g id="line2d_14">
    <path d="M 73.832727 295.48359 
L 84.915312 295.450027 
L 107.080482 295.27927 
L 107.732399 295.083035 
L 110.991982 295.231988 
L 112.947733 295.19328 
L 114.903483 295.135953 
L 115.5554 294.98602 
L 117.51115 295.131788 
L 118.163067 295.040407 
L 120.118817 295.09504 
L 121.422651 295.016889 
L 122.726484 295.057067 
L 123.378401 294.671946 
L 124.682234 295.004884 
L 125.334151 294.772146 
L 125.986068 294.906154 
L 130.549485 294.903704 
L 131.201402 294.59453 
L 131.853319 294.806689 
L 132.505235 294.867691 
L 134.460986 294.660676 
L 136.416736 294.710409 
L 139.024403 294.569051 
L 139.67632 294.669251 
L 140.328237 294.523238 
L 141.63207 294.574196 
L 144.891654 294.488695 
L 145.543571 293.249302 
L 146.195487 294.249587 
L 146.847404 294.449007 
L 147.499321 293.921793 
L 148.151238 294.402949 
L 149.455071 294.447292 
L 150.106988 294.1805 
L 150.758905 294.410299 
L 151.410821 294.336313 
L 152.062738 294.485755 
L 153.366572 294.434798 
L 159.233823 294.258407 
L 159.885739 293.933553 
L 160.537656 294.19618 
L 163.79724 294.119743 
L 164.449157 293.924733 
L 165.75299 294.111169 
L 167.056824 294.014399 
L 167.70874 293.534468 
L 168.360657 293.440637 
L 169.012574 293.812039 
L 170.316407 293.877451 
L 171.620241 293.68244 
L 172.272158 293.743197 
L 172.924074 293.48057 
L 173.575991 293.636383 
L 174.879825 293.647897 
L 175.531742 293.731928 
L 176.183658 293.535448 
L 178.139409 293.653042 
L 180.095159 293.569501 
L 180.747076 293.589345 
L 181.398992 293.426428 
L 182.050909 293.144447 
L 182.702826 293.565581 
L 184.006659 293.402174 
L 184.658576 292.978346 
L 185.310493 293.230438 
L 185.96241 293.208879 
L 186.614326 292.621398 
L 187.266243 292.781865 
L 187.91816 293.08271 
L 188.570077 293.08369 
L 189.221993 292.674806 
L 189.87391 292.99525 
L 190.525827 292.983245 
L 191.177744 292.292625 
L 191.82966 292.980795 
L 192.481577 292.746342 
L 193.133494 292.131668 
L 193.785411 292.606699 
L 194.437327 292.797055 
L 195.089244 292.620419 
L 195.741161 292.836988 
L 196.393078 292.841397 
L 197.044995 292.419529 
L 197.696911 292.855117 
L 199.652662 292.756142 
L 200.304578 292.236278 
L 200.956495 292.116724 
L 201.608412 291.774966 
L 202.912245 292.666231 
L 203.564162 292.627523 
L 204.216079 292.192425 
L 204.867996 292.412669 
L 208.127579 292.20051 
L 208.779496 292.114029 
L 209.431413 292.257347 
L 210.735246 292.185075 
L 211.387163 291.678686 
L 212.03908 291.677461 
L 212.690997 292.074341 
L 213.342913 291.638753 
L 213.99483 291.785745 
L 214.646747 291.255592 
L 215.298664 291.490045 
L 215.950581 291.89305 
L 216.602497 291.444967 
L 217.254414 291.761737 
L 217.906331 291.021384 
L 218.558248 291.623808 
L 219.210164 291.88668 
L 219.862081 291.862426 
L 220.513998 291.626503 
L 221.165915 291.58853 
L 221.817831 291.020159 
L 222.469748 291.675991 
L 223.121665 291.49078 
L 223.773582 291.602984 
L 224.425498 291.173521 
L 225.077415 291.414344 
L 225.729332 291.198755 
L 226.381249 291.380536 
L 227.685082 290.871451 
L 228.336999 291.254367 
L 228.988916 291.244077 
L 229.640832 290.875126 
L 230.944666 291.131383 
L 231.596583 290.89595 
L 232.248499 290.214149 
L 232.900416 290.400585 
L 234.20425 291.009379 
L 236.811917 290.729358 
L 237.463834 290.89791 
L 238.11575 290.820494 
L 238.767667 290.936128 
L 242.679168 290.520874 
L 243.331084 290.08553 
L 243.983001 290.558602 
L 245.286835 290.546842 
L 245.938751 290.217579 
L 247.242585 290.045842 
L 247.894502 289.904484 
L 248.546418 290.09778 
L 249.198335 289.500745 
L 249.850252 289.857937 
L 250.502169 289.870921 
L 251.154085 289.998805 
L 251.806002 289.522794 
L 252.457919 289.450767 
L 253.109836 289.69355 
L 253.761752 289.137918 
L 254.413669 288.950502 
L 255.065586 289.245712 
L 255.717503 288.746182 
L 256.369419 288.923554 
L 257.021336 288.965691 
L 257.673253 288.802775 
L 258.977087 288.628098 
L 259.629003 288.903465 
L 260.28092 288.39879 
L 260.932837 288.461997 
L 261.584754 287.846343 
L 262.23667 287.925964 
L 262.888587 288.641573 
L 263.540504 288.732708 
L 264.192421 288.670236 
L 264.844337 288.873821 
L 265.496254 288.89391 
L 266.148171 287.620954 
L 266.800088 288.541863 
L 267.452004 288.743733 
L 268.103921 288.704535 
L 268.755838 288.432108 
L 269.407755 288.563422 
L 270.059671 288.574691 
L 270.711588 288.294915 
L 271.363505 288.476206 
L 272.015422 287.464652 
L 272.667338 287.379151 
L 273.971172 288.171196 
L 274.623089 287.807389 
L 275.275005 287.00089 
L 275.926922 287.854672 
L 276.578839 287.226524 
L 277.230756 284.60687 
L 277.882673 287.321334 
L 278.534589 285.838423 
L 279.186506 286.584411 
L 279.838423 285.831808 
L 280.49034 286.862962 
L 281.142256 281.166262 
L 281.794173 287.477881 
L 282.44609 287.198105 
L 283.098007 287.214764 
L 283.749923 286.90314 
L 284.40184 287.300755 
L 285.053757 287.060422 
L 285.705674 286.612829 
L 286.35759 286.530758 
L 287.009507 287.10599 
L 287.661424 287.10305 
L 288.965257 286.667462 
L 289.617174 286.438398 
L 290.269091 285.786731 
L 290.921008 286.455302 
L 291.572924 286.70127 
L 292.876758 285.948178 
L 293.528675 286.019714 
L 294.832508 285.746553 
L 295.484425 285.374416 
L 296.136342 285.442768 
L 296.788258 284.835933 
L 297.440175 283.531129 
L 298.092092 286.00526 
L 298.744009 285.947688 
L 299.395926 285.546643 
L 300.047842 284.738183 
L 300.699759 284.776156 
L 301.351676 283.424804 
L 302.003593 285.130653 
L 302.655509 284.959162 
L 303.307426 283.433133 
L 303.959343 284.10342 
L 304.61126 284.408185 
L 305.263176 284.979251 
L 305.915093 284.40353 
L 306.56701 284.447628 
L 307.218927 284.751412 
L 307.870843 284.311169 
L 308.52276 284.783016 
L 309.174677 284.694085 
L 309.826594 283.155807 
L 310.47851 284.446158 
L 311.130427 284.058097 
L 312.434261 284.722259 
L 313.738094 284.49589 
L 314.390011 284.19431 
L 315.041928 284.073041 
L 315.693844 284.513529 
L 316.345761 282.978681 
L 316.997678 282.741288 
L 318.301512 283.646028 
L 318.953428 283.283446 
L 319.605345 282.131269 
L 320.257262 281.697885 
L 320.909179 282.864027 
L 321.561095 283.769257 
L 322.213012 283.79988 
L 322.864929 282.005835 
L 323.516846 282.692536 
L 324.168762 280.635373 
L 324.820679 281.574411 
L 325.472596 281.576126 
L 326.124513 282.743983 
L 326.776429 280.147848 
L 327.428346 282.010735 
L 328.080263 281.11359 
L 328.73218 282.156747 
L 329.384096 281.304435 
L 330.036013 281.869132 
L 330.68793 282.092316 
L 331.339847 282.134453 
L 331.991763 281.841203 
L 332.64368 281.422764 
L 333.295597 280.470742 
L 333.947514 280.215954 
L 334.59943 280.639538 
L 335.251347 280.465352 
L 335.903264 281.287286 
L 336.555181 278.878811 
L 337.207097 278.408925 
L 337.859014 278.674002 
L 338.510931 277.762647 
L 339.162848 279.908495 
L 339.814765 279.218119 
L 340.466681 280.160342 
L 341.118598 280.712545 
L 341.770515 280.49916 
L 342.422432 280.696865 
L 343.074348 277.151893 
L 343.726265 279.001795 
L 344.378182 279.146828 
L 345.030099 272.540979 
L 345.682015 279.940343 
L 346.333932 279.826914 
L 346.985849 278.526764 
L 347.637766 279.898205 
L 348.289682 277.89837 
L 348.941599 277.180556 
L 349.593516 278.312155 
L 350.245433 279.863172 
L 350.897349 279.012085 
L 351.549266 277.016415 
L 352.201183 276.953943 
L 352.8531 275.043528 
L 353.505016 278.073537 
L 354.156933 279.025314 
L 354.80885 278.566452 
L 355.460767 279.118409 
L 356.112683 277.081826 
L 356.7646 277.921399 
L 357.416517 277.625454 
L 358.068434 276.199871 
L 358.72035 276.81822 
L 359.372267 275.799071 
L 360.024184 277.055613 
L 360.676101 276.667552 
L 361.328018 276.871137 
L 361.979934 273.504025 
L 362.631851 277.844718 
L 363.283768 277.039688 
L 364.587601 276.565147 
L 365.239518 274.969297 
L 365.891435 275.126089 
L 366.543352 275.131969 
L 367.195268 274.039569 
L 367.847185 273.501821 
L 368.499102 275.041813 
L 369.151019 249.717676 
L 369.802935 276.642808 
L 370.454852 276.859623 
L 371.106769 275.218205 
L 371.758686 274.536894 
L 372.410602 275.208895 
L 373.062519 276.285126 
L 374.366353 275.928669 
L 375.670186 276.050918 
L 376.322103 276.355193 
L 376.97402 276.089871 
L 377.625936 275.135154 
L 378.277853 275.548448 
L 378.92977 275.666777 
L 379.581687 272.192851 
L 380.233604 274.50382 
L 380.88552 273.20416 
L 381.537437 273.261733 
L 382.189354 273.772777 
L 382.841271 274.735334 
L 383.493187 273.050308 
L 384.145104 274.295091 
L 384.797021 274.682906 
L 385.448938 274.127764 
L 386.100854 273.367077 
L 386.752771 271.430449 
L 387.404688 272.654653 
L 388.056605 271.628644 
L 388.708521 259.590927 
L 389.360438 272.671802 
L 390.012355 271.001721 
L 390.664272 272.665677 
L 391.316188 273.12307 
L 391.968105 272.774452 
L 392.620022 272.994206 
L 393.271939 271.670537 
L 393.923855 273.272512 
L 394.575772 272.803361 
L 395.227689 271.528444 
L 395.879606 271.890291 
L 396.531522 273.01062 
L 397.183439 272.449353 
L 397.835356 273.005475 
L 398.487273 271.827329 
L 398.487273 271.827329 
" clip-path="url(#pf7b0b7fb6a)" style="fill: none; stroke: #ff7f0e; stroke-width: 1.5; stroke-linecap: square"/>
   </g>
   <g id="patch_3">
    <path d="M 57.6 307.584 
L 57.6 41.472 
" style="fill: none; stroke: #000000; stroke-width: 0.8; stroke-linejoin: miter; stroke-linecap: square"/>
   </g>
   <g id="patch_4">
    <path d="M 414.72 307.584 
L 414.72 41.472 
" style="fill: none; stroke: #000000; stroke-width: 0.8; stroke-linejoin: miter; stroke-linecap: square"/>
   </g>
   <g id="patch_5">
    <path d="M 57.6 307.584 
L 414.72 307.584 
" style="fill: none; stroke: #000000; stroke-width: 0.8; stroke-linejoin: miter; stroke-linecap: square"/>
   </g>
   <g id="patch_6">
    <path d="M 57.6 41.472 
L 414.72 41.472 
" style="fill: none; stroke: #000000; stroke-width: 0.8; stroke-linejoin: miter; stroke-linecap: square"/>
   </g>
   <g id="text_15">
    <!-- Tiempo de ejecucion de los metodos -->
    <g transform="translate(126.241875 35.472) scale(0.12 -0.12)">
     <defs>
      <path id="DejaVuSans-6a" d="M 603 3500 
L 1178 3500 
L 1178 -63 
Q 1178 -731 923 -1031 
Q 669 -1331 103 -1331 
L -116 -1331 
L -116 -844 
L 38 -844 
Q 366 -844 484 -692 
Q 603 -541 603 -63 
L 603 3500 
z
M 603 4863 
L 1178 4863 
L 1178 4134 
L 603 4134 
L 603 4863 
z
" transform="scale(0.015625)"/>
      <path id="DejaVuSans-63" d="M 3122 3366 
L 3122 2828 
Q 2878 2963 2633 3030 
Q 2388 3097 2138 3097 
Q 1578 3097 1268 2742 
Q 959 2388 959 1747 
Q 959 1106 1268 751 
Q 1578 397 2138 397 
Q 2388 397 2633 464 
Q 2878 531 3122 666 
L 3122 134 
Q 2881 22 2623 -34 
Q 2366 -91 2075 -91 
Q 1284 -91 818 406 
Q 353 903 353 1747 
Q 353 2603 823 3093 
Q 1294 3584 2113 3584 
Q 2378 3584 2631 3529 
Q 2884 3475 3122 3366 
z
" transform="scale(0.015625)"/>
      <path id="DejaVuSans-75" d="M 544 1381 
L 544 3500 
L 1119 3500 
L 1119 1403 
Q 1119 906 1312 657 
Q 1506 409 1894 409 
Q 2359 409 2629 706 
Q 2900 1003 2900 1516 
L 2900 3500 
L 3475 3500 
L 3475 0 
L 2900 0 
L 2900 538 
Q 2691 219 2414 64 
Q 2138 -91 1772 -91 
Q 1169 -91 856 284 
Q 544 659 544 1381 
z
M 1991 3584 
L 1991 3584 
z
" transform="scale(0.015625)"/>
      <path id="DejaVuSans-74" d="M 1172 4494 
L 1172 3500 
L 2356 3500 
L 2356 3053 
L 1172 3053 
L 1172 1153 
Q 1172 725 1289 603 
Q 1406 481 1766 481 
L 2356 481 
L 2356 0 
L 1766 0 
Q 1100 0 847 248 
Q 594 497 594 1153 
L 594 3053 
L 172 3053 
L 172 3500 
L 594 3500 
L 594 4494 
L 1172 4494 
z
" transform="scale(0.015625)"/>
     </defs>
     <use xlink:href="#DejaVuSans-54"/>
     <use xlink:href="#DejaVuSans-69" x="57.958984"/>
     <use xlink:href="#DejaVuSans-65" x="85.742188"/>
     <use xlink:href="#DejaVuSans-6d" x="147.265625"/>
     <use xlink:href="#DejaVuSans-70" x="244.677734"/>
     <use xlink:href="#DejaVuSans-6f" x="308.154297"/>
     <use xlink:href="#DejaVuSans-20" x="369.335938"/>
     <use xlink:href="#DejaVuSans-64" x="401.123047"/>
     <use xlink:href="#DejaVuSans-65" x="464.599609"/>
     <use xlink:href="#DejaVuSans-20" x="526.123047"/>
     <use xlink:href="#DejaVuSans-65" x="557.910156"/>
     <use xlink:href="#DejaVuSans-6a" x="619.433594"/>
     <use xlink:href="#DejaVuSans-65" x="647.216797"/>
     <use xlink:href="#DejaVuSans-63" x="708.740234"/>
     <use xlink:href="#DejaVuSans-75" x="763.720703"/>
     <use xlink:href="#DejaVuSans-63" x="827.099609"/>
     <use xlink:href="#DejaVuSans-69" x="882.080078"/>
     <use xlink:href="#DejaVuSans-6f" x="909.863281"/>
     <use xlink:href="#DejaVuSans-6e" x="971.044922"/>
     <use xlink:href="#DejaVuSans-20" x="1034.423828"/>
     <use xlink:href="#DejaVuSans-64" x="1066.210938"/>
     <use xlink:href="#DejaVuSans-65" x="1129.6875"/>
     <use xlink:href="#DejaVuSans-20" x="1191.210938"/>
     <use xlink:href="#DejaVuSans-6c" x="1222.998047"/>
     <use xlink:href="#DejaVuSans-6f" x="1250.78125"/>
     <use xlink:href="#DejaVuSans-73" x="1311.962891"/>
     <use xlink:href="#DejaVuSans-20" x="1364.0625"/>
     <use xlink:href="#DejaVuSans-6d" x="1395.849609"/>
     <use xlink:href="#DejaVuSans-65" x="1493.261719"/>
     <use xlink:href="#DejaVuSans-74" x="1554.785156"/>
     <use xlink:href="#DejaVuSans-6f" x="1593.994141"/>
     <use xlink:href="#DejaVuSans-64" x="1655.175781"/>
     <use xlink:href="#DejaVuSans-6f" x="1718.652344"/>
     <use xlink:href="#DejaVuSans-73" x="1779.833984"/>
    </g>
   </g>
   <g id="legend_1">
    <g id="patch_7">
     <path d="M 64.6 78.82825 
L 143.428125 78.82825 
Q 145.428125 78.82825 145.428125 76.82825 
L 145.428125 48.472 
Q 145.428125 46.472 143.428125 46.472 
L 64.6 46.472 
Q 62.6 46.472 62.6 48.472 
L 62.6 76.82825 
Q 62.6 78.82825 64.6 78.82825 
z
" style="fill: #ffffff; opacity: 0.8; stroke: #cccccc; stroke-linejoin: miter"/>
    </g>
    <g id="line2d_15">
     <path d="M 66.6 54.570437 
L 76.6 54.570437 
L 86.6 54.570437 
" style="fill: none; stroke: #1f77b4; stroke-width: 1.5; stroke-linecap: square"/>
    </g>
    <g id="text_16">
     <!-- Metodo 1 -->
     <g transform="translate(94.6 58.070437) scale(0.1 -0.1)">
      <defs>
       <path id="DejaVuSans-4d" d="M 628 4666 
L 1569 4666 
L 2759 1491 
L 3956 4666 
L 4897 4666 
L 4897 0 
L 4281 0 
L 4281 4097 
L 3078 897 
L 2444 897 
L 1241 4097 
L 1241 0 
L 628 0 
L 628 4666 
z
" transform="scale(0.015625)"/>
      </defs>
      <use xlink:href="#DejaVuSans-4d"/>
      <use xlink:href="#DejaVuSans-65" x="86.279297"/>
      <use xlink:href="#DejaVuSans-74" x="147.802734"/>
      <use xlink:href="#DejaVuSans-6f" x="187.011719"/>
      <use xlink:href="#DejaVuSans-64" x="248.193359"/>
      <use xlink:href="#DejaVuSans-6f" x="311.669922"/>
      <use xlink:href="#DejaVuSans-20" x="372.851562"/>
      <use xlink:href="#DejaVuSans-31" x="404.638672"/>
     </g>
    </g>
    <g id="line2d_16">
     <path d="M 66.6 69.248562 
L 76.6 69.248562 
L 86.6 69.248562 
" style="fill: none; stroke: #ff7f0e; stroke-width: 1.5; stroke-linecap: square"/>
    </g>
    <g id="text_17">
     <!-- Metodo 2 -->
     <g transform="translate(94.6 72.748562) scale(0.1 -0.1)">
      <use xlink:href="#DejaVuSans-4d"/>
      <use xlink:href="#DejaVuSans-65" x="86.279297"/>
      <use xlink:href="#DejaVuSans-74" x="147.802734"/>
      <use xlink:href="#DejaVuSans-6f" x="187.011719"/>
      <use xlink:href="#DejaVuSans-64" x="248.193359"/>
      <use xlink:href="#DejaVuSans-6f" x="311.669922"/>
      <use xlink:href="#DejaVuSans-20" x="372.851562"/>
      <use xlink:href="#DejaVuSans-32" x="404.638672"/>
     </g>
    </g>
   </g>
  </g>
 </g>
 <defs>
  <clipPath id="pf7b0b7fb6a">
   <rect x="57.6" y="41.472" width="357.12" height="266.112"/>
  </clipPath>
 </defs>
</svg>
