<?xml version="1.0" encoding="utf-8" standalone="no"?>
<!DOCTYPE svg PUBLIC "-//W3C//DTD SVG 1.1//EN"
  "http://www.w3.org/Graphics/SVG/1.1/DTD/svg11.dtd">
<svg xmlns:xlink="http://www.w3.org/1999/xlink" width="460.8pt" height="345.6pt" viewBox="0 0 460.8 345.6" xmlns="http://www.w3.org/2000/svg" version="1.1">
 <metadata>
  <rdf:RDF xmlns:dc="http://purl.org/dc/elements/1.1/" xmlns:cc="http://creativecommons.org/ns#" xmlns:rdf="http://www.w3.org/1999/02/22-rdf-syntax-ns#">
   <cc:Work>
    <dc:type rdf:resource="http://purl.org/dc/dcmitype/StillImage"/>
    <dc:date>2024-09-13T00:32:24.057121</dc:date>
    <dc:format>image/svg+xml</dc:format>
    <dc:creator>
     <cc:Agent>
      <dc:title>Matplotlib v3.8.4, https://matplotlib.org/</dc:title>
     </cc:Agent>
    </dc:creator>
   </cc:Work>
  </rdf:RDF>
 </metadata>
 <defs>
  <style type="text/css">*{stroke-linejoin: round; stroke-linecap: butt}</style>
 </defs>
 <g id="figure_1">
  <g id="patch_1">
   <path d="M 0 345.6 
L 460.8 345.6 
L 460.8 0 
L 0 0 
z
" style="fill: #ffffff"/>
  </g>
  <g id="axes_1">
   <g id="patch_2">
    <path d="M 57.6 307.584 
L 414.72 307.584 
L 414.72 41.472 
L 57.6 41.472 
z
" style="fill: #ffffff"/>
   </g>
   <g id="matplotlib.axis_1">
    <g id="xtick_1">
     <g id="line2d_1">
      <defs>
       <path id="m8cba175a03" d="M 0 0 
L 0 3.5 
" style="stroke: #000000; stroke-width: 0.8"/>
      </defs>
      <g>
       <use xlink:href="#m8cba175a03" x="73.832727" y="307.584" style="stroke: #000000; stroke-width: 0.8"/>
      </g>
     </g>
     <g id="text_1">
      <!-- 0 -->
      <g transform="translate(70.651477 322.182437) scale(0.1 -0.1)">
       <defs>
        <path id="DejaVuSans-30" d="M 2034 4250 
Q 1547 4250 1301 3770 
Q 1056 3291 1056 2328 
Q 1056 1369 1301 889 
Q 1547 409 2034 409 
Q 2525 409 2770 889 
Q 3016 1369 3016 2328 
Q 3016 3291 2770 3770 
Q 2525 4250 2034 4250 
z
M 2034 4750 
Q 2819 4750 3233 4129 
Q 3647 3509 3647 2328 
Q 3647 1150 3233 529 
Q 2819 -91 2034 -91 
Q 1250 -91 836 529 
Q 422 1150 422 2328 
Q 422 3509 836 4129 
Q 1250 4750 2034 4750 
z
" transform="scale(0.015625)"/>
       </defs>
       <use xlink:href="#DejaVuSans-30"/>
      </g>
     </g>
    </g>
    <g id="xtick_2">
     <g id="line2d_2">
      <g>
       <use xlink:href="#m8cba175a03" x="138.893758" y="307.584" style="stroke: #000000; stroke-width: 0.8"/>
      </g>
     </g>
     <g id="text_2">
      <!-- 200 -->
      <g transform="translate(129.350008 322.182437) scale(0.1 -0.1)">
       <defs>
        <path id="DejaVuSans-32" d="M 1228 531 
L 3431 531 
L 3431 0 
L 469 0 
L 469 531 
Q 828 903 1448 1529 
Q 2069 2156 2228 2338 
Q 2531 2678 2651 2914 
Q 2772 3150 2772 3378 
Q 2772 3750 2511 3984 
Q 2250 4219 1831 4219 
Q 1534 4219 1204 4116 
Q 875 4013 500 3803 
L 500 4441 
Q 881 4594 1212 4672 
Q 1544 4750 1819 4750 
Q 2544 4750 2975 4387 
Q 3406 4025 3406 3419 
Q 3406 3131 3298 2873 
Q 3191 2616 2906 2266 
Q 2828 2175 2409 1742 
Q 1991 1309 1228 531 
z
" transform="scale(0.015625)"/>
       </defs>
       <use xlink:href="#DejaVuSans-32"/>
       <use xlink:href="#DejaVuSans-30" x="63.623047"/>
       <use xlink:href="#DejaVuSans-30" x="127.246094"/>
      </g>
     </g>
    </g>
    <g id="xtick_3">
     <g id="line2d_3">
      <g>
       <use xlink:href="#m8cba175a03" x="203.95479" y="307.584" style="stroke: #000000; stroke-width: 0.8"/>
      </g>
     </g>
     <g id="text_3">
      <!-- 400 -->
      <g transform="translate(194.41104 322.182437) scale(0.1 -0.1)">
       <defs>
        <path id="DejaVuSans-34" d="M 2419 4116 
L 825 1625 
L 2419 1625 
L 2419 4116 
z
M 2253 4666 
L 3047 4666 
L 3047 1625 
L 3713 1625 
L 3713 1100 
L 3047 1100 
L 3047 0 
L 2419 0 
L 2419 1100 
L 313 1100 
L 313 1709 
L 2253 4666 
z
" transform="scale(0.015625)"/>
       </defs>
       <use xlink:href="#DejaVuSans-34"/>
       <use xlink:href="#DejaVuSans-30" x="63.623047"/>
       <use xlink:href="#DejaVuSans-30" x="127.246094"/>
      </g>
     </g>
    </g>
    <g id="xtick_4">
     <g id="line2d_4">
      <g>
       <use xlink:href="#m8cba175a03" x="269.015821" y="307.584" style="stroke: #000000; stroke-width: 0.8"/>
      </g>
     </g>
     <g id="text_4">
      <!-- 600 -->
      <g transform="translate(259.472071 322.182437) scale(0.1 -0.1)">
       <defs>
        <path id="DejaVuSans-36" d="M 2113 2584 
Q 1688 2584 1439 2293 
Q 1191 2003 1191 1497 
Q 1191 994 1439 701 
Q 1688 409 2113 409 
Q 2538 409 2786 701 
Q 3034 994 3034 1497 
Q 3034 2003 2786 2293 
Q 2538 2584 2113 2584 
z
M 3366 4563 
L 3366 3988 
Q 3128 4100 2886 4159 
Q 2644 4219 2406 4219 
Q 1781 4219 1451 3797 
Q 1122 3375 1075 2522 
Q 1259 2794 1537 2939 
Q 1816 3084 2150 3084 
Q 2853 3084 3261 2657 
Q 3669 2231 3669 1497 
Q 3669 778 3244 343 
Q 2819 -91 2113 -91 
Q 1303 -91 875 529 
Q 447 1150 447 2328 
Q 447 3434 972 4092 
Q 1497 4750 2381 4750 
Q 2619 4750 2861 4703 
Q 3103 4656 3366 4563 
z
" transform="scale(0.015625)"/>
       </defs>
       <use xlink:href="#DejaVuSans-36"/>
       <use xlink:href="#DejaVuSans-30" x="63.623047"/>
       <use xlink:href="#DejaVuSans-30" x="127.246094"/>
      </g>
     </g>
    </g>
    <g id="xtick_5">
     <g id="line2d_5">
      <g>
       <use xlink:href="#m8cba175a03" x="334.076852" y="307.584" style="stroke: #000000; stroke-width: 0.8"/>
      </g>
     </g>
     <g id="text_5">
      <!-- 800 -->
      <g transform="translate(324.533102 322.182437) scale(0.1 -0.1)">
       <defs>
        <path id="DejaVuSans-38" d="M 2034 2216 
Q 1584 2216 1326 1975 
Q 1069 1734 1069 1313 
Q 1069 891 1326 650 
Q 1584 409 2034 409 
Q 2484 409 2743 651 
Q 3003 894 3003 1313 
Q 3003 1734 2745 1975 
Q 2488 2216 2034 2216 
z
M 1403 2484 
Q 997 2584 770 2862 
Q 544 3141 544 3541 
Q 544 4100 942 4425 
Q 1341 4750 2034 4750 
Q 2731 4750 3128 4425 
Q 3525 4100 3525 3541 
Q 3525 3141 3298 2862 
Q 3072 2584 2669 2484 
Q 3125 2378 3379 2068 
Q 3634 1759 3634 1313 
Q 3634 634 3220 271 
Q 2806 -91 2034 -91 
Q 1263 -91 848 271 
Q 434 634 434 1313 
Q 434 1759 690 2068 
Q 947 2378 1403 2484 
z
M 1172 3481 
Q 1172 3119 1398 2916 
Q 1625 2713 2034 2713 
Q 2441 2713 2670 2916 
Q 2900 3119 2900 3481 
Q 2900 3844 2670 4047 
Q 2441 4250 2034 4250 
Q 1625 4250 1398 4047 
Q 1172 3844 1172 3481 
z
" transform="scale(0.015625)"/>
       </defs>
       <use xlink:href="#DejaVuSans-38"/>
       <use xlink:href="#DejaVuSans-30" x="63.623047"/>
       <use xlink:href="#DejaVuSans-30" x="127.246094"/>
      </g>
     </g>
    </g>
    <g id="xtick_6">
     <g id="line2d_6">
      <g>
       <use xlink:href="#m8cba175a03" x="399.137883" y="307.584" style="stroke: #000000; stroke-width: 0.8"/>
      </g>
     </g>
     <g id="text_6">
      <!-- 1000 -->
      <g transform="translate(386.412883 322.182437) scale(0.1 -0.1)">
       <defs>
        <path id="DejaVuSans-31" d="M 794 531 
L 1825 531 
L 1825 4091 
L 703 3866 
L 703 4441 
L 1819 4666 
L 2450 4666 
L 2450 531 
L 3481 531 
L 3481 0 
L 794 0 
L 794 531 
z
" transform="scale(0.015625)"/>
       </defs>
       <use xlink:href="#DejaVuSans-31"/>
       <use xlink:href="#DejaVuSans-30" x="63.623047"/>
       <use xlink:href="#DejaVuSans-30" x="127.246094"/>
       <use xlink:href="#DejaVuSans-30" x="190.869141"/>
      </g>
     </g>
    </g>
    <g id="text_7">
     <!-- Tamano de la grilla -->
     <g transform="translate(188.7725 335.860562) scale(0.1 -0.1)">
      <defs>
       <path id="DejaVuSans-54" d="M -19 4666 
L 3928 4666 
L 3928 4134 
L 2272 4134 
L 2272 0 
L 1638 0 
L 1638 4134 
L -19 4134 
L -19 4666 
z
" transform="scale(0.015625)"/>
       <path id="DejaVuSans-61" d="M 2194 1759 
Q 1497 1759 1228 1600 
Q 959 1441 959 1056 
Q 959 750 1161 570 
Q 1363 391 1709 391 
Q 2188 391 2477 730 
Q 2766 1069 2766 1631 
L 2766 1759 
L 2194 1759 
z
M 3341 1997 
L 3341 0 
L 2766 0 
L 2766 531 
Q 2569 213 2275 61 
Q 1981 -91 1556 -91 
Q 1019 -91 701 211 
Q 384 513 384 1019 
Q 384 1609 779 1909 
Q 1175 2209 1959 2209 
L 2766 2209 
L 2766 2266 
Q 2766 2663 2505 2880 
Q 2244 3097 1772 3097 
Q 1472 3097 1187 3025 
Q 903 2953 641 2809 
L 641 3341 
Q 956 3463 1253 3523 
Q 1550 3584 1831 3584 
Q 2591 3584 2966 3190 
Q 3341 2797 3341 1997 
z
" transform="scale(0.015625)"/>
       <path id="DejaVuSans-6d" d="M 3328 2828 
Q 3544 3216 3844 3400 
Q 4144 3584 4550 3584 
Q 5097 3584 5394 3201 
Q 5691 2819 5691 2113 
L 5691 0 
L 5113 0 
L 5113 2094 
Q 5113 2597 4934 2840 
Q 4756 3084 4391 3084 
Q 3944 3084 3684 2787 
Q 3425 2491 3425 1978 
L 3425 0 
L 2847 0 
L 2847 2094 
Q 2847 2600 2669 2842 
Q 2491 3084 2119 3084 
Q 1678 3084 1418 2786 
Q 1159 2488 1159 1978 
L 1159 0 
L 581 0 
L 581 3500 
L 1159 3500 
L 1159 2956 
Q 1356 3278 1631 3431 
Q 1906 3584 2284 3584 
Q 2666 3584 2933 3390 
Q 3200 3197 3328 2828 
z
" transform="scale(0.015625)"/>
       <path id="DejaVuSans-6e" d="M 3513 2113 
L 3513 0 
L 2938 0 
L 2938 2094 
Q 2938 2591 2744 2837 
Q 2550 3084 2163 3084 
Q 1697 3084 1428 2787 
Q 1159 2491 1159 1978 
L 1159 0 
L 581 0 
L 581 3500 
L 1159 3500 
L 1159 2956 
Q 1366 3272 1645 3428 
Q 1925 3584 2291 3584 
Q 2894 3584 3203 3211 
Q 3513 2838 3513 2113 
z
" transform="scale(0.015625)"/>
       <path id="DejaVuSans-6f" d="M 1959 3097 
Q 1497 3097 1228 2736 
Q 959 2375 959 1747 
Q 959 1119 1226 758 
Q 1494 397 1959 397 
Q 2419 397 2687 759 
Q 2956 1122 2956 1747 
Q 2956 2369 2687 2733 
Q 2419 3097 1959 3097 
z
M 1959 3584 
Q 2709 3584 3137 3096 
Q 3566 2609 3566 1747 
Q 3566 888 3137 398 
Q 2709 -91 1959 -91 
Q 1206 -91 779 398 
Q 353 888 353 1747 
Q 353 2609 779 3096 
Q 1206 3584 1959 3584 
z
" transform="scale(0.015625)"/>
       <path id="DejaVuSans-20" transform="scale(0.015625)"/>
       <path id="DejaVuSans-64" d="M 2906 2969 
L 2906 4863 
L 3481 4863 
L 3481 0 
L 2906 0 
L 2906 525 
Q 2725 213 2448 61 
Q 2172 -91 1784 -91 
Q 1150 -91 751 415 
Q 353 922 353 1747 
Q 353 2572 751 3078 
Q 1150 3584 1784 3584 
Q 2172 3584 2448 3432 
Q 2725 3281 2906 2969 
z
M 947 1747 
Q 947 1113 1208 752 
Q 1469 391 1925 391 
Q 2381 391 2643 752 
Q 2906 1113 2906 1747 
Q 2906 2381 2643 2742 
Q 2381 3103 1925 3103 
Q 1469 3103 1208 2742 
Q 947 2381 947 1747 
z
" transform="scale(0.015625)"/>
       <path id="DejaVuSans-65" d="M 3597 1894 
L 3597 1613 
L 953 1613 
Q 991 1019 1311 708 
Q 1631 397 2203 397 
Q 2534 397 2845 478 
Q 3156 559 3463 722 
L 3463 178 
Q 3153 47 2828 -22 
Q 2503 -91 2169 -91 
Q 1331 -91 842 396 
Q 353 884 353 1716 
Q 353 2575 817 3079 
Q 1281 3584 2069 3584 
Q 2775 3584 3186 3129 
Q 3597 2675 3597 1894 
z
M 3022 2063 
Q 3016 2534 2758 2815 
Q 2500 3097 2075 3097 
Q 1594 3097 1305 2825 
Q 1016 2553 972 2059 
L 3022 2063 
z
" transform="scale(0.015625)"/>
       <path id="DejaVuSans-6c" d="M 603 4863 
L 1178 4863 
L 1178 0 
L 603 0 
L 603 4863 
z
" transform="scale(0.015625)"/>
       <path id="DejaVuSans-67" d="M 2906 1791 
Q 2906 2416 2648 2759 
Q 2391 3103 1925 3103 
Q 1463 3103 1205 2759 
Q 947 2416 947 1791 
Q 947 1169 1205 825 
Q 1463 481 1925 481 
Q 2391 481 2648 825 
Q 2906 1169 2906 1791 
z
M 3481 434 
Q 3481 -459 3084 -895 
Q 2688 -1331 1869 -1331 
Q 1566 -1331 1297 -1286 
Q 1028 -1241 775 -1147 
L 775 -588 
Q 1028 -725 1275 -790 
Q 1522 -856 1778 -856 
Q 2344 -856 2625 -561 
Q 2906 -266 2906 331 
L 2906 616 
Q 2728 306 2450 153 
Q 2172 0 1784 0 
Q 1141 0 747 490 
Q 353 981 353 1791 
Q 353 2603 747 3093 
Q 1141 3584 1784 3584 
Q 2172 3584 2450 3431 
Q 2728 3278 2906 2969 
L 2906 3500 
L 3481 3500 
L 3481 434 
z
" transform="scale(0.015625)"/>
       <path id="DejaVuSans-72" d="M 2631 2963 
Q 2534 3019 2420 3045 
Q 2306 3072 2169 3072 
Q 1681 3072 1420 2755 
Q 1159 2438 1159 1844 
L 1159 0 
L 581 0 
L 581 3500 
L 1159 3500 
L 1159 2956 
Q 1341 3275 1631 3429 
Q 1922 3584 2338 3584 
Q 2397 3584 2469 3576 
Q 2541 3569 2628 3553 
L 2631 2963 
z
" transform="scale(0.015625)"/>
       <path id="DejaVuSans-69" d="M 603 3500 
L 1178 3500 
L 1178 0 
L 603 0 
L 603 3500 
z
M 603 4863 
L 1178 4863 
L 1178 4134 
L 603 4134 
L 603 4863 
z
" transform="scale(0.015625)"/>
      </defs>
      <use xlink:href="#DejaVuSans-54"/>
      <use xlink:href="#DejaVuSans-61" x="44.583984"/>
      <use xlink:href="#DejaVuSans-6d" x="105.863281"/>
      <use xlink:href="#DejaVuSans-61" x="203.275391"/>
      <use xlink:href="#DejaVuSans-6e" x="264.554688"/>
      <use xlink:href="#DejaVuSans-6f" x="327.933594"/>
      <use xlink:href="#DejaVuSans-20" x="389.115234"/>
      <use xlink:href="#DejaVuSans-64" x="420.902344"/>
      <use xlink:href="#DejaVuSans-65" x="484.378906"/>
      <use xlink:href="#DejaVuSans-20" x="545.902344"/>
      <use xlink:href="#DejaVuSans-6c" x="577.689453"/>
      <use xlink:href="#DejaVuSans-61" x="605.472656"/>
      <use xlink:href="#DejaVuSans-20" x="666.751953"/>
      <use xlink:href="#DejaVuSans-67" x="698.539062"/>
      <use xlink:href="#DejaVuSans-72" x="762.015625"/>
      <use xlink:href="#DejaVuSans-69" x="803.128906"/>
      <use xlink:href="#DejaVuSans-6c" x="830.912109"/>
      <use xlink:href="#DejaVuSans-6c" x="858.695312"/>
      <use xlink:href="#DejaVuSans-61" x="886.478516"/>
     </g>
    </g>
   </g>
   <g id="matplotlib.axis_2">
    <g id="ytick_1">
     <g id="line2d_7">
      <defs>
       <path id="me8d57d79a3" d="M 0 0 
L -3.5 0 
" style="stroke: #000000; stroke-width: 0.8"/>
      </defs>
      <g>
       <use xlink:href="#me8d57d79a3" x="57.6" y="295.48953" style="stroke: #000000; stroke-width: 0.8"/>
      </g>
     </g>
     <g id="text_8">
      <!-- 0.0 -->
      <g transform="translate(34.696875 299.288749) scale(0.1 -0.1)">
       <defs>
        <path id="DejaVuSans-2e" d="M 684 794 
L 1344 794 
L 1344 0 
L 684 0 
L 684 794 
z
" transform="scale(0.015625)"/>
       </defs>
       <use xlink:href="#DejaVuSans-30"/>
       <use xlink:href="#DejaVuSans-2e" x="63.623047"/>
       <use xlink:href="#DejaVuSans-30" x="95.410156"/>
      </g>
     </g>
    </g>
    <g id="ytick_2">
     <g id="line2d_8">
      <g>
       <use xlink:href="#me8d57d79a3" x="57.6" y="244.487343" style="stroke: #000000; stroke-width: 0.8"/>
      </g>
     </g>
     <g id="text_9">
      <!-- 0.1 -->
      <g transform="translate(34.696875 248.286562) scale(0.1 -0.1)">
       <use xlink:href="#DejaVuSans-30"/>
       <use xlink:href="#DejaVuSans-2e" x="63.623047"/>
       <use xlink:href="#DejaVuSans-31" x="95.410156"/>
      </g>
     </g>
    </g>
    <g id="ytick_3">
     <g id="line2d_9">
      <g>
       <use xlink:href="#me8d57d79a3" x="57.6" y="193.485156" style="stroke: #000000; stroke-width: 0.8"/>
      </g>
     </g>
     <g id="text_10">
      <!-- 0.2 -->
      <g transform="translate(34.696875 197.284375) scale(0.1 -0.1)">
       <use xlink:href="#DejaVuSans-30"/>
       <use xlink:href="#DejaVuSans-2e" x="63.623047"/>
       <use xlink:href="#DejaVuSans-32" x="95.410156"/>
      </g>
     </g>
    </g>
    <g id="ytick_4">
     <g id="line2d_10">
      <g>
       <use xlink:href="#me8d57d79a3" x="57.6" y="142.482969" style="stroke: #000000; stroke-width: 0.8"/>
      </g>
     </g>
     <g id="text_11">
      <!-- 0.3 -->
      <g transform="translate(34.696875 146.282188) scale(0.1 -0.1)">
       <defs>
        <path id="DejaVuSans-33" d="M 2597 2516 
Q 3050 2419 3304 2112 
Q 3559 1806 3559 1356 
Q 3559 666 3084 287 
Q 2609 -91 1734 -91 
Q 1441 -91 1130 -33 
Q 819 25 488 141 
L 488 750 
Q 750 597 1062 519 
Q 1375 441 1716 441 
Q 2309 441 2620 675 
Q 2931 909 2931 1356 
Q 2931 1769 2642 2001 
Q 2353 2234 1838 2234 
L 1294 2234 
L 1294 2753 
L 1863 2753 
Q 2328 2753 2575 2939 
Q 2822 3125 2822 3475 
Q 2822 3834 2567 4026 
Q 2313 4219 1838 4219 
Q 1578 4219 1281 4162 
Q 984 4106 628 3988 
L 628 4550 
Q 988 4650 1302 4700 
Q 1616 4750 1894 4750 
Q 2613 4750 3031 4423 
Q 3450 4097 3450 3541 
Q 3450 3153 3228 2886 
Q 3006 2619 2597 2516 
z
" transform="scale(0.015625)"/>
       </defs>
       <use xlink:href="#DejaVuSans-30"/>
       <use xlink:href="#DejaVuSans-2e" x="63.623047"/>
       <use xlink:href="#DejaVuSans-33" x="95.410156"/>
      </g>
     </g>
    </g>
    <g id="ytick_5">
     <g id="line2d_11">
      <g>
       <use xlink:href="#me8d57d79a3" x="57.6" y="91.480782" style="stroke: #000000; stroke-width: 0.8"/>
      </g>
     </g>
     <g id="text_12">
      <!-- 0.4 -->
      <g transform="translate(34.696875 95.280001) scale(0.1 -0.1)">
       <use xlink:href="#DejaVuSans-30"/>
       <use xlink:href="#DejaVuSans-2e" x="63.623047"/>
       <use xlink:href="#DejaVuSans-34" x="95.410156"/>
      </g>
     </g>
    </g>
    <g id="text_13">
     <!-- Tiempo (s) -->
     <g transform="translate(28.617187 201.0905) rotate(-90) scale(0.1 -0.1)">
      <defs>
       <path id="DejaVuSans-70" d="M 1159 525 
L 1159 -1331 
L 581 -1331 
L 581 3500 
L 1159 3500 
L 1159 2969 
Q 1341 3281 1617 3432 
Q 1894 3584 2278 3584 
Q 2916 3584 3314 3078 
Q 3713 2572 3713 1747 
Q 3713 922 3314 415 
Q 2916 -91 2278 -91 
Q 1894 -91 1617 61 
Q 1341 213 1159 525 
z
M 3116 1747 
Q 3116 2381 2855 2742 
Q 2594 3103 2138 3103 
Q 1681 3103 1420 2742 
Q 1159 2381 1159 1747 
Q 1159 1113 1420 752 
Q 1681 391 2138 391 
Q 2594 391 2855 752 
Q 3116 1113 3116 1747 
z
" transform="scale(0.015625)"/>
       <path id="DejaVuSans-28" d="M 1984 4856 
Q 1566 4138 1362 3434 
Q 1159 2731 1159 2009 
Q 1159 1288 1364 580 
Q 1569 -128 1984 -844 
L 1484 -844 
Q 1016 -109 783 600 
Q 550 1309 550 2009 
Q 550 2706 781 3412 
Q 1013 4119 1484 4856 
L 1984 4856 
z
" transform="scale(0.015625)"/>
       <path id="DejaVuSans-73" d="M 2834 3397 
L 2834 2853 
Q 2591 2978 2328 3040 
Q 2066 3103 1784 3103 
Q 1356 3103 1142 2972 
Q 928 2841 928 2578 
Q 928 2378 1081 2264 
Q 1234 2150 1697 2047 
L 1894 2003 
Q 2506 1872 2764 1633 
Q 3022 1394 3022 966 
Q 3022 478 2636 193 
Q 2250 -91 1575 -91 
Q 1294 -91 989 -36 
Q 684 19 347 128 
L 347 722 
Q 666 556 975 473 
Q 1284 391 1588 391 
Q 1994 391 2212 530 
Q 2431 669 2431 922 
Q 2431 1156 2273 1281 
Q 2116 1406 1581 1522 
L 1381 1569 
Q 847 1681 609 1914 
Q 372 2147 372 2553 
Q 372 3047 722 3315 
Q 1072 3584 1716 3584 
Q 2034 3584 2315 3537 
Q 2597 3491 2834 3397 
z
" transform="scale(0.015625)"/>
       <path id="DejaVuSans-29" d="M 513 4856 
L 1013 4856 
Q 1481 4119 1714 3412 
Q 1947 2706 1947 2009 
Q 1947 1309 1714 600 
Q 1481 -109 1013 -844 
L 513 -844 
Q 928 -128 1133 580 
Q 1338 1288 1338 2009 
Q 1338 2731 1133 3434 
Q 928 4138 513 4856 
z
" transform="scale(0.015625)"/>
      </defs>
      <use xlink:href="#DejaVuSans-54"/>
      <use xlink:href="#DejaVuSans-69" x="57.958984"/>
      <use xlink:href="#DejaVuSans-65" x="85.742188"/>
      <use xlink:href="#DejaVuSans-6d" x="147.265625"/>
      <use xlink:href="#DejaVuSans-70" x="244.677734"/>
      <use xlink:href="#DejaVuSans-6f" x="308.154297"/>
      <use xlink:href="#DejaVuSans-20" x="369.335938"/>
      <use xlink:href="#DejaVuSans-28" x="401.123047"/>
      <use xlink:href="#DejaVuSans-73" x="440.136719"/>
      <use xlink:href="#DejaVuSans-29" x="492.236328"/>
     </g>
    </g>
   </g>
   <g id="line2d_12">
    <path d="M 73.832727 295.485807 
L 80.989441 295.418637 
L 81.965356 295.39793 
L 87.820849 295.212537 
L 88.796764 295.159342 
L 89.77268 295.145367 
L 91.073901 294.970175 
L 91.399206 295.072944 
L 97.905309 294.713991 
L 98.881224 294.627491 
L 100.50775 294.53278 
L 101.15836 294.487082 
L 103.760802 294.270068 
L 105.712633 294.120529 
L 106.688548 293.943756 
L 107.013853 293.962729 
L 107.339158 293.66202 
L 107.664463 293.601378 
L 107.989769 293.860877 
L 108.315074 293.654624 
L 108.640379 293.819157 
L 109.290989 293.679564 
L 109.616294 293.762902 
L 113.194651 293.337442 
L 113.845261 293.315307 
L 114.170567 293.035305 
L 114.495872 293.212333 
L 114.821177 293.237222 
L 115.471787 293.105331 
L 115.797092 293.12359 
L 116.447703 292.981038 
L 118.074228 292.813394 
L 119.700754 292.554354 
L 120.026059 292.620402 
L 120.351365 292.488816 
L 120.67667 292.544256 
L 121.001975 292.382018 
L 121.652585 292.421136 
L 121.97789 292.156231 
L 122.303195 292.266855 
L 122.628501 292.183007 
L 122.953806 292.230847 
L 123.279111 292.079269 
L 123.604416 292.116092 
L 123.929721 291.862 
L 124.255026 292.032857 
L 124.580332 291.85593 
L 125.230942 291.886073 
L 125.556247 291.892754 
L 125.881552 291.755609 
L 127.182773 291.62642 
L 127.508078 291.593116 
L 127.833383 291.188873 
L 128.158688 291.46255 
L 128.483993 291.154395 
L 129.459909 291.192239 
L 130.435824 291.071976 
L 130.76113 291.110278 
L 131.086435 290.95972 
L 131.737045 290.921519 
L 132.06235 290.783966 
L 132.387655 290.826298 
L 132.71296 290.745817 
L 133.038266 290.530536 
L 133.688876 290.616883 
L 134.339486 290.477851 
L 134.990097 290.382069 
L 135.640707 290.301792 
L 135.966012 290.012915 
L 136.291317 290.107269 
L 141.4962 289.206316 
L 141.821505 289.027043 
L 142.14681 289.114869 
L 143.122725 288.634173 
L 143.448031 288.81977 
L 143.773336 288.857359 
L 144.098641 288.532169 
L 144.423946 288.644476 
L 145.074556 288.536555 
L 145.725167 288.36886 
L 146.050472 288.014599 
L 146.375777 287.928405 
L 146.701082 288.139758 
L 147.351692 288.071262 
L 147.676998 286.121142 
L 148.002303 287.759588 
L 148.327608 287.906984 
L 148.978218 287.623361 
L 149.303523 287.661714 
L 149.954134 287.485706 
L 150.279439 287.42486 
L 150.930049 286.62841 
L 151.255354 287.016996 
L 151.905965 287.090184 
L 152.23127 287.054431 
L 152.556575 286.400328 
L 152.88188 285.440977 
L 153.207185 285.957119 
L 153.53249 285.679157 
L 154.183101 286.502792 
L 154.508406 285.558486 
L 154.833711 286.117776 
L 155.159016 286.110126 
L 155.484321 285.92203 
L 155.809627 286.028165 
L 156.134932 285.974358 
L 156.460237 284.837672 
L 156.785542 281.642691 
L 157.110847 285.777592 
L 157.436152 285.536402 
L 157.761457 285.447709 
L 158.086763 285.554916 
L 159.713288 285.05183 
L 160.038594 284.728732 
L 160.363899 284.877352 
L 161.339814 284.726437 
L 161.665119 284.552468 
L 161.990424 284.761067 
L 162.641035 284.412008 
L 163.291645 284.114104 
L 163.61695 284.119663 
L 164.918171 283.705373 
L 165.243476 283.718072 
L 166.219392 283.440569 
L 166.544697 283.418383 
L 166.870002 282.441794 
L 167.195307 282.582101 
L 167.845917 282.488767 
L 168.171222 281.01465 
L 168.496528 282.037142 
L 169.147138 282.020975 
L 169.472443 281.637693 
L 169.797748 280.611835 
L 170.123053 281.880361 
L 170.448359 281.703843 
L 170.773664 281.02531 
L 171.098969 281.831552 
L 171.424274 281.133485 
L 171.749579 280.087839 
L 172.074884 281.622443 
L 172.725495 281.15812 
L 173.0508 281.466989 
L 174.35202 280.777031 
L 174.677326 280.993484 
L 175.002631 280.661103 
L 175.327936 276.654728 
L 175.653241 279.970381 
L 175.978546 280.104159 
L 176.303851 279.462705 
L 176.629156 280.1342 
L 177.279767 279.922694 
L 177.605072 280.224473 
L 178.255682 279.116094 
L 178.580987 279.434552 
L 178.906293 279.919684 
L 179.231598 279.729089 
L 179.556903 279.306383 
L 179.882208 279.507791 
L 180.532818 279.384926 
L 180.858124 278.15149 
L 181.183429 277.927641 
L 181.508734 279.036327 
L 181.834039 278.778 
L 182.159344 278.762751 
L 183.13526 278.18204 
L 183.460565 278.448883 
L 183.78587 278.376817 
L 184.111175 277.909076 
L 184.43648 278.454035 
L 184.761785 276.855932 
L 185.087091 277.150266 
L 185.412396 277.64769 
L 186.063006 277.552469 
L 186.388311 277.759028 
L 186.713616 277.619129 
L 187.038921 276.519012 
L 187.364227 275.87771 
L 187.689532 276.852923 
L 188.014837 276.767851 
L 188.340142 276.327855 
L 188.665447 276.157559 
L 188.990752 276.362384 
L 189.316058 275.524061 
L 189.641363 275.203308 
L 190.291973 276.332956 
L 190.617278 276.17235 
L 190.942583 275.657534 
L 191.267889 275.590772 
L 191.593194 274.95962 
L 191.918499 274.823495 
L 192.243804 275.185559 
L 192.569109 274.163323 
L 193.219719 274.36116 
L 193.545025 274.151745 
L 193.87033 274.409867 
L 194.195635 274.305364 
L 194.846245 274.847619 
L 195.496856 274.194434 
L 195.822161 274.051118 
L 196.147466 274.407062 
L 196.472771 273.446538 
L 196.798076 270.217079 
L 197.123381 273.362231 
L 198.099297 273.214784 
L 198.749907 272.561344 
L 199.075212 272.259156 
L 199.400517 272.17592 
L 199.725823 270.080801 
L 200.051128 271.357845 
L 200.376433 271.426953 
L 200.701738 269.736792 
L 201.027043 271.894286 
L 201.352348 271.769841 
L 201.677653 269.790854 
L 202.002959 265.418437 
L 202.328264 270.24763 
L 202.653569 271.050098 
L 202.978874 270.908465 
L 203.304179 270.400126 
L 203.95479 270.275273 
L 204.280095 270.015825 
L 204.6054 269.91331 
L 204.930705 270.169596 
L 205.906621 268.094215 
L 206.231926 269.603523 
L 206.882536 269.385285 
L 207.207841 261.674366 
L 207.533146 258.001341 
L 207.858451 268.848181 
L 208.183757 265.642285 
L 208.509062 266.64764 
L 208.834367 267.165771 
L 209.159672 268.319288 
L 209.484977 267.978746 
L 209.810282 266.904487 
L 210.135588 267.83849 
L 210.460893 259.874601 
L 210.786198 266.494175 
L 211.111503 264.62066 
L 211.436808 264.358611 
L 211.762113 265.466889 
L 212.087418 266.148635 
L 212.412724 266.303018 
L 212.738029 261.551043 
L 213.063334 265.908007 
L 213.388639 266.242632 
L 213.713944 266.348053 
L 214.039249 265.592558 
L 214.364555 264.060401 
L 214.68986 265.13517 
L 215.015165 264.017508 
L 215.34047 262.127877 
L 215.665775 265.304651 
L 215.99108 265.074274 
L 216.316385 264.488463 
L 216.641691 263.141699 
L 216.966996 265.176074 
L 217.292301 264.591436 
L 217.617606 265.142005 
L 217.942911 264.385285 
L 218.593522 264.296541 
L 218.918827 264.720829 
L 219.244132 264.689564 
L 219.569437 264.153123 
L 220.220047 262.673142 
L 220.545353 262.394976 
L 220.870658 260.381206 
L 221.195963 255.959571 
L 221.521268 262.718585 
L 221.846573 262.0145 
L 222.171878 260.801566 
L 222.497183 251.251661 
L 222.822489 262.072948 
L 223.147794 261.384215 
L 223.473099 261.663707 
L 223.798404 261.182909 
L 224.123709 261.688188 
L 224.449014 258.32138 
L 224.77432 260.261554 
L 225.099625 260.48321 
L 225.42493 260.86848 
L 225.750235 260.621018 
L 226.07554 259.866083 
L 226.400845 247.027711 
L 227.051456 257.365701 
L 227.376761 251.379626 
L 227.702066 256.668501 
L 228.027371 259.212031 
L 228.352676 259.291085 
L 228.677981 255.385031 
L 229.003287 259.036482 
L 229.328592 258.099419 
L 229.653897 258.919279 
L 229.979202 257.968343 
L 230.304507 258.739496 
L 231.280423 258.08932 
L 231.931033 257.068001 
L 232.256338 255.06183 
L 232.581643 256.987877 
L 232.906948 256.573076 
L 233.232254 255.559051 
L 233.557559 256.83584 
L 233.882864 255.222079 
L 234.208169 255.436187 
L 234.858779 256.415428 
L 235.184085 256.093605 
L 235.50939 256.190356 
L 235.834695 251.86889 
L 236.16 255.664115 
L 236.485305 252.732561 
L 236.81061 255.364681 
L 237.135915 253.786827 
L 237.461221 254.258342 
L 237.786526 253.414001 
L 238.111831 254.77479 
L 238.437136 254.178218 
L 238.762441 254.356623 
L 239.087746 254.142975 
L 239.413052 252.981553 
L 239.738357 244.915098 
L 240.063662 250.323982 
L 240.388967 251.081875 
L 240.714272 253.046326 
L 241.039577 252.901378 
L 241.364882 252.477703 
L 241.690188 250.756379 
L 242.015493 250.19051 
L 242.340798 249.146852 
L 242.666103 249.624436 
L 242.991408 251.612808 
L 243.642019 251.336988 
L 244.292629 223.868995 
L 244.617934 245.209432 
L 244.943239 243.133796 
L 245.268544 225.858284 
L 245.59385 230.024602 
L 245.919155 222.338266 
L 246.24446 237.402782 
L 246.569765 245.713793 
L 246.89507 249.143027 
L 247.220375 246.020826 
L 247.54568 249.259924 
L 247.870986 248.864759 
L 248.196291 249.234627 
L 248.521596 249.17067 
L 248.846901 246.397936 
L 249.172206 248.340252 
L 249.497511 245.472093 
L 249.822817 246.302562 
L 250.148122 248.078866 
L 250.473427 248.354023 
L 250.798732 247.953503 
L 251.124037 248.082691 
L 251.449342 245.235086 
L 252.099953 242.711549 
L 252.750563 245.894646 
L 253.401173 245.978851 
L 253.726478 244.983543 
L 254.377089 213.908421 
L 254.702394 237.258905 
L 255.027699 238.189389 
L 255.353004 235.37825 
L 255.678309 243.321841 
L 256.003615 241.050459 
L 256.654225 243.258241 
L 256.97953 243.453529 
L 257.304835 241.987318 
L 257.63014 241.854763 
L 257.955445 241.521872 
L 258.280751 241.770252 
L 258.606056 241.777597 
L 258.931361 243.219582 
L 259.256666 242.545792 
L 259.581971 238.695994 
L 260.232582 236.849612 
L 260.557887 239.737611 
L 260.883192 240.304246 
L 261.208497 237.398549 
L 261.533802 237.478928 
L 262.184412 240.27752 
L 262.835023 239.690587 
L 263.160328 239.504123 
L 263.485633 231.457661 
L 263.810938 236.466229 
L 264.136243 235.332909 
L 264.461549 237.1696 
L 264.786854 223.524475 
L 265.112159 235.860986 
L 265.437464 227.95427 
L 266.088074 234.72328 
L 266.413379 235.184085 
L 266.738685 233.675542 
L 267.06399 233.307409 
L 267.389295 234.291904 
L 267.7146 235.771834 
L 268.039905 235.799426 
L 268.36521 236.607964 
L 268.690516 234.531716 
L 269.015821 234.678755 
L 269.341126 234.376975 
L 269.666431 235.477246 
L 269.991736 234.485049 
L 270.317041 234.21183 
L 270.642347 233.18791 
L 270.967652 233.581035 
L 271.292957 233.058671 
L 271.618262 233.207036 
L 271.943567 231.697474 
L 272.268872 232.183116 
L 272.594177 231.372692 
L 272.919483 231.119313 
L 273.570093 232.012208 
L 273.895398 227.295832 
L 274.220703 232.459497 
L 274.546008 232.703594 
L 274.871314 232.315773 
L 275.196619 226.991247 
L 275.521924 229.508766 
L 275.847229 226.967888 
L 276.172534 230.974059 
L 276.823144 227.92219 
L 277.14845 228.861599 
L 277.473755 223.029244 
L 277.79906 228.94611 
L 278.124365 226.447563 
L 278.44967 228.968806 
L 278.774975 224.582719 
L 279.100281 226.214942 
L 279.425586 227.156494 
L 279.750891 226.162257 
L 280.076196 224.709103 
L 280.401501 226.529473 
L 280.726806 226.28609 
L 281.052111 227.054132 
L 281.377417 226.777497 
L 281.702722 224.118549 
L 282.028027 227.203314 
L 282.353332 225.163634 
L 282.678637 224.879501 
L 283.003942 225.677787 
L 283.329248 222.958861 
L 283.654553 226.480154 
L 283.979858 224.385596 
L 284.305163 226.100341 
L 284.630468 223.798969 
L 284.955773 223.970336 
L 285.281079 224.774794 
L 285.606384 224.349078 
L 285.931689 224.966511 
L 286.256994 221.83161 
L 286.582299 224.279766 
L 286.907604 223.891895 
L 287.232909 222.082898 
L 287.558215 221.756382 
L 287.88352 222.968245 
L 288.208825 222.836405 
L 288.53413 223.256306 
L 288.859435 220.750517 
L 289.18474 222.765206 
L 289.510046 222.696251 
L 289.835351 222.262681 
L 290.160656 221.370092 
L 290.485961 221.541867 
L 290.811266 220.857418 
L 291.136571 220.696659 
L 291.461876 220.981251 
L 291.787182 219.608017 
L 292.112487 217.074687 
L 292.437792 217.91199 
L 292.763097 216.369786 
L 293.088402 210.910512 
L 293.413707 216.802285 
L 293.739013 216.606946 
L 294.064318 215.292314 
L 294.389623 216.723741 
L 294.714928 215.05291 
L 295.365538 209.413037 
L 295.690844 215.920559 
L 296.016149 206.277269 
L 296.341454 206.042965 
L 296.666759 211.590881 
L 296.992064 214.667996 
L 297.317369 215.637497 
L 297.642674 214.600673 
L 297.96798 214.460927 
L 298.293285 209.666263 
L 298.943895 214.174703 
L 299.2692 214.460774 
L 299.594505 213.227184 
L 299.919811 213.723079 
L 300.245116 208.29767 
L 300.570421 211.928516 
L 300.895726 213.025471 
L 301.221031 212.761841 
L 301.546336 213.613883 
L 301.871641 211.517897 
L 302.196947 212.942592 
L 302.522252 210.371164 
L 302.847557 205.358567 
L 303.172862 210.839517 
L 303.498167 210.414516 
L 303.823472 207.721192 
L 304.148778 210.511318 
L 304.474083 211.045515 
L 304.799388 208.977274 
L 305.124693 204.970083 
L 305.449998 202.713441 
L 305.775303 206.635917 
L 306.100608 208.190668 
L 306.425914 208.165268 
L 306.751219 205.861041 
L 307.076524 202.314196 
L 307.401829 206.842476 
L 307.727134 205.155323 
L 308.052439 206.655553 
L 308.377745 204.679677 
L 308.70305 206.507442 
L 309.35366 203.402735 
L 309.678965 205.673353 
L 310.00427 205.807845 
L 310.329576 204.703444 
L 310.654881 204.461286 
L 310.980186 203.060613 
L 311.305491 205.097283 
L 311.630796 204.910411 
L 311.956101 202.59333 
L 312.281406 201.35362 
L 312.606712 203.370859 
L 313.582627 200.142828 
L 313.907932 203.158384 
L 314.233237 202.925916 
L 314.558543 201.360812 
L 314.883848 200.99635 
L 315.209153 198.939636 
L 315.534458 201.13528 
L 315.859763 199.430532 
L 316.185068 198.917348 
L 316.510373 196.937596 
L 316.835679 198.705944 
L 317.160984 196.74185 
L 317.486289 198.758017 
L 317.811594 195.99426 
L 318.136899 198.488725 
L 318.462204 196.914696 
L 318.78751 198.335209 
L 319.112815 197.963301 
L 319.43812 197.924539 
L 319.763425 197.756334 
L 320.08873 197.959578 
L 320.73934 193.804277 
L 321.064646 194.449505 
L 321.389951 194.531364 
L 321.715256 185.833196 
L 322.040561 193.00701 
L 322.365866 186.43543 
L 322.691171 182.517442 
L 323.016477 191.645507 
L 323.341782 182.702478 
L 323.667087 188.198677 
L 323.992392 177.796526 
L 324.317697 183.35551 
L 324.643002 192.229023 
L 324.968308 192.311647 
L 325.293613 192.893684 
L 325.618918 189.150939 
L 325.944223 188.714411 
L 326.269528 191.432471 
L 326.594833 188.846558 
L 326.920138 190.859206 
L 327.245444 190.014406 
L 327.570749 188.857115 
L 327.896054 189.583438 
L 328.221359 184.420537 
L 328.546664 184.680189 
L 328.871969 186.971871 
L 329.52258 187.166954 
L 329.847885 185.026137 
L 330.17319 185.748532 
L 330.498495 183.086218 
L 330.8238 183.981765 
L 331.149105 184.366985 
L 331.474411 178.402432 
L 332.125021 184.862114 
L 332.450326 184.221068 
L 332.775631 186.101671 
L 333.100936 184.051893 
L 333.426242 180.798872 
L 333.751547 183.888839 
L 334.076852 183.545748 
L 334.402157 180.837328 
L 335.052767 179.02114 
L 335.703378 179.874967 
L 336.028683 179.370199 
L 336.353988 174.528714 
L 336.679293 179.212908 
L 337.329903 182.095143 
L 337.655209 175.781379 
L 337.980514 178.253863 
L 338.631124 180.358111 
L 338.956429 174.471796 
L 339.281734 174.011909 
L 339.60704 176.133294 
L 339.932345 149.51056 
L 340.25765 168.236523 
L 340.582955 166.41192 
L 340.90826 173.735732 
L 341.233565 176.197353 
L 341.55887 173.621538 
L 341.884176 172.256261 
L 342.209481 173.215867 
L 342.534786 174.781481 
L 342.860091 170.423752 
L 343.185396 173.916025 
L 343.510701 167.116464 
L 343.836007 171.502958 
L 344.161312 172.419621 
L 344.486617 171.016142 
L 344.811922 167.114475 
L 345.137227 166.927858 
L 345.462532 167.187561 
L 345.787837 169.547891 
L 346.438448 169.620519 
L 346.763753 168.208064 
L 347.089058 168.045979 
L 347.414363 169.745474 
L 347.739668 168.225456 
L 348.064974 160.681212 
L 348.390279 136.954536 
L 348.715584 161.618377 
L 349.040889 165.568599 
L 349.366194 161.575842 
L 349.691499 139.316294 
L 350.016805 164.213165 
L 350.34211 167.377697 
L 350.667415 134.882725 
L 350.99272 114.501588 
L 351.318025 143.307827 
L 351.64333 145.947394 
L 351.968635 158.005076 
L 352.293941 160.908733 
L 352.619246 166.031393 
L 353.269856 165.738181 
L 353.595161 164.395038 
L 353.920466 164.494646 
L 354.571077 160.253253 
L 354.896382 161.03532 
L 355.221687 160.500613 
L 355.546992 162.407534 
L 355.872297 160.681416 
L 356.197602 161.518923 
L 356.522908 159.975801 
L 356.848213 161.514486 
L 357.173518 161.643981 
L 357.498823 156.388052 
L 357.824128 157.73502 
L 358.149433 159.824171 
L 358.474739 159.232852 
L 358.800044 148.632609 
L 359.125349 153.165887 
L 359.450654 132.765573 
L 360.101264 150.432272 
L 360.42657 151.917863 
L 360.751875 155.015328 
L 361.07718 141.208883 
L 361.402485 143.370815 
L 361.72779 155.991816 
L 362.053095 152.287782 
L 362.3784 156.094841 
L 362.703706 152.454304 
L 363.029011 153.047001 
L 363.354316 152.866708 
L 363.679621 154.850489 
L 364.004926 147.622663 
L 364.330231 153.888486 
L 364.655537 147.840341 
L 364.980842 146.301707 
L 365.306147 150.699268 
L 365.631452 151.019307 
L 365.956757 150.606393 
L 366.282062 147.215207 
L 366.607367 117.403663 
L 366.932673 150.623071 
L 367.583283 146.524433 
L 367.908588 126.924548 
L 368.233893 140.13034 
L 368.559198 138.400703 
L 368.884504 148.282836 
L 369.209809 147.71105 
L 369.535114 145.524178 
L 369.860419 140.335522 
L 370.185724 139.234028 
L 370.511029 129.144724 
L 370.836334 144.850745 
L 371.16164 141.716661 
L 371.486945 127.655919 
L 372.137555 144.744304 
L 372.46286 144.33649 
L 372.788165 139.292527 
L 373.113471 137.04787 
L 373.438776 143.026958 
L 373.764081 138.528616 
L 374.089386 141.94408 
L 374.414691 140.073269 
L 374.739996 143.199091 
L 375.065302 143.085815 
L 375.390607 139.557177 
L 375.715912 137.840393 
L 376.041217 137.103615 
L 376.366522 140.915876 
L 376.691827 141.007833 
L 377.017132 140.26417 
L 377.342438 140.179863 
L 377.667743 138.701871 
L 377.993048 139.360105 
L 378.318353 139.004977 
L 378.643658 115.001562 
L 378.968963 137.313081 
L 379.294269 137.499188 
L 379.619574 136.22597 
L 379.944879 130.314102 
L 380.270184 130.705034 
L 380.595489 128.558658 
L 380.920794 117.33532 
L 381.246099 132.309155 
L 381.571405 130.376172 
L 381.89671 132.551364 
L 382.222015 130.472668 
L 382.54732 134.047615 
L 382.872625 135.554271 
L 383.19793 132.893487 
L 383.523236 132.210618 
L 383.848541 133.054348 
L 384.173846 132.947192 
L 384.499151 127.434366 
L 384.824456 80.615429 
L 385.149761 115.629246 
L 385.475066 126.348121 
L 385.800372 126.024155 
L 386.125677 127.945764 
L 386.450982 125.692284 
L 386.776287 126.896088 
L 387.101592 127.494395 
L 387.426897 125.764197 
L 387.752203 119.086328 
L 388.077508 123.962137 
L 388.402813 106.735128 
L 388.728118 53.568 
L 389.053423 100.495214 
L 389.378728 75.514241 
L 389.704034 119.053074 
L 390.029339 109.467111 
L 390.354644 76.763387 
L 390.679949 112.672446 
L 391.005254 116.646128 
L 391.330559 117.833408 
L 391.655864 112.30625 
L 391.98117 98.177114 
L 392.306475 114.009519 
L 392.63178 117.130241 
L 393.28239 119.753487 
L 393.607695 106.709066 
L 393.933001 107.863296 
L 394.258306 103.700345 
L 394.583611 107.998146 
L 394.908916 100.270805 
L 395.234221 106.982795 
L 395.559526 106.913534 
L 396.210137 110.775725 
L 396.535442 105.54999 
L 396.860747 92.783582 
L 397.511357 112.628482 
L 397.836662 107.406062 
L 398.161968 97.868245 
L 398.487273 101.225821 
L 398.487273 101.225821 
" clip-path="url(#p9c14ae9f5f)" style="fill: none; stroke: #1f77b4; stroke-width: 1.5; stroke-linecap: square"/>
   </g>
   <g id="line2d_13">
    <path d="M 73.832727 295.48698 
L 87.495544 295.456073 
L 88.471459 295.452298 
L 106.363243 295.33586 
L 109.290989 295.257725 
L 110.266905 295.297558 
L 117.098313 295.215495 
L 121.32728 295.172194 
L 121.97789 295.129455 
L 123.604416 295.142511 
L 123.929721 295.001082 
L 124.255026 295.114613 
L 142.472115 294.826502 
L 142.79742 294.592555 
L 143.122725 294.793962 
L 143.448031 294.737146 
L 144.098641 294.779274 
L 146.050472 294.744898 
L 147.026387 294.711696 
L 147.351692 294.735055 
L 148.002303 294.571695 
L 148.327608 294.687164 
L 150.279439 294.641211 
L 150.604744 294.394462 
L 150.930049 294.631469 
L 151.58066 294.628817 
L 152.23127 294.629378 
L 152.556575 294.252472 
L 153.857796 294.515439 
L 154.183101 294.533341 
L 154.508406 294.027042 
L 154.833711 294.474026 
L 156.134932 294.503862 
L 156.460237 293.756272 
L 156.785542 294.433428 
L 157.110847 294.456838 
L 157.436152 294.302811 
L 158.086763 294.452707 
L 158.737373 294.440364 
L 160.689204 294.399613 
L 162.641035 294.298527 
L 162.96634 294.162351 
L 163.291645 294.283685 
L 164.918171 294.179131 
L 165.243476 294.2259 
L 165.568781 294.119713 
L 165.894086 294.21014 
L 166.219392 294.168318 
L 166.544697 294.001694 
L 167.845917 294.14297 
L 168.171222 293.974 
L 168.496528 293.935136 
L 169.147138 294.092478 
L 169.472443 293.818086 
L 169.797748 294.053972 
L 170.123053 293.896273 
L 170.448359 294.041374 
L 171.098969 293.814516 
L 172.074884 293.876841 
L 172.400189 293.824105 
L 172.725495 294.017046 
L 173.0508 293.922845 
L 173.70141 293.879442 
L 174.677326 293.858021 
L 175.002631 293.792993 
L 175.327936 293.582966 
L 175.653241 293.731689 
L 176.303851 293.721998 
L 176.629156 293.361566 
L 176.954462 293.744592 
L 177.605072 293.828593 
L 177.930377 293.810334 
L 178.255682 293.640905 
L 178.580987 293.839762 
L 179.556903 293.651207 
L 180.207513 293.748978 
L 180.532818 293.702821 
L 180.858124 293.271496 
L 181.183429 293.726741 
L 181.834039 293.619535 
L 183.78587 293.510237 
L 184.111175 293.64779 
L 184.43648 293.234009 
L 184.761785 293.132872 
L 185.412396 293.568788 
L 185.737701 293.466528 
L 186.713616 293.530944 
L 187.364227 293.234111 
L 188.014837 293.419351 
L 188.340142 293.304239 
L 188.990752 293.237222 
L 189.316058 293.085848 
L 190.291973 293.34601 
L 190.942583 293.31342 
L 191.267889 292.971807 
L 191.593194 293.227022 
L 192.243804 293.0783 
L 196.147466 293.08697 
L 196.472771 292.961199 
L 196.798076 292.685634 
L 197.123381 292.928863 
L 197.448686 292.870925 
L 197.773992 292.994248 
L 199.075212 292.811609 
L 199.400517 292.75413 
L 199.725823 292.376816 
L 200.051128 292.874291 
L 200.376433 292.089367 
L 200.701738 292.80452 
L 201.352348 292.710268 
L 201.677653 291.631164 
L 202.002959 292.280574 
L 202.328264 292.551651 
L 202.653569 292.658144 
L 202.978874 292.601021 
L 203.304179 292.417413 
L 203.629484 292.700169 
L 203.95479 292.045403 
L 204.280095 292.495549 
L 204.6054 292.343511 
L 204.930705 292.325864 
L 205.25601 292.453829 
L 205.581315 292.415169 
L 205.906621 292.06356 
L 206.557231 292.448882 
L 206.882536 290.846036 
L 207.207841 292.191984 
L 207.533146 291.974357 
L 207.858451 292.364677 
L 208.509062 292.286032 
L 208.834367 291.60352 
L 209.484977 292.158832 
L 210.786198 292.017964 
L 211.111503 291.194534 
L 211.762113 292.187444 
L 212.087418 292.144093 
L 212.412724 291.100945 
L 212.738029 291.681044 
L 213.063334 291.879799 
L 213.388639 291.81824 
L 213.713944 291.955334 
L 214.039249 291.534463 
L 214.364555 291.616628 
L 214.68986 291.897497 
L 215.015165 291.762953 
L 215.34047 291.172144 
L 215.665775 291.854451 
L 215.99108 291.994707 
L 216.316385 291.521254 
L 216.641691 291.967268 
L 216.966996 291.871078 
L 217.292301 291.949723 
L 217.617606 291.28542 
L 217.942911 291.77601 
L 218.918827 291.850677 
L 219.244132 291.850167 
L 220.220047 291.439395 
L 220.545353 290.845628 
L 220.870658 290.905504 
L 221.195963 291.399971 
L 221.521268 291.502944 
L 222.171878 291.052289 
L 222.497183 291.107728 
L 222.822489 291.414149 
L 223.147794 291.206876 
L 224.123709 291.413078 
L 224.449014 290.756731 
L 224.77432 291.166585 
L 225.099625 291.336677 
L 225.42493 291.219627 
L 225.750235 291.293121 
L 226.07554 290.979152 
L 226.400845 291.156282 
L 226.72615 290.729802 
L 227.051456 290.793198 
L 227.376761 290.386251 
L 227.702066 291.064835 
L 228.352676 291.153069 
L 229.003287 290.667324 
L 229.328592 291.160719 
L 229.653897 290.963443 
L 229.979202 291.064376 
L 230.304507 290.97701 
L 230.955118 291.001287 
L 231.280423 290.816914 
L 231.605728 290.420474 
L 231.931033 290.420576 
L 232.256338 290.690275 
L 232.906948 290.514828 
L 233.232254 290.676556 
L 233.557559 290.36988 
L 233.882864 290.66508 
L 234.208169 290.376867 
L 234.533474 290.557007 
L 234.858779 290.396248 
L 235.184085 290.585313 
L 235.50939 290.295365 
L 235.834695 290.296538 
L 236.16 290.65845 
L 236.485305 290.541349 
L 236.81061 290.698844 
L 237.786526 290.464591 
L 238.437136 290.597145 
L 238.762441 290.531811 
L 239.087746 290.294498 
L 239.413052 290.45694 
L 239.738357 288.79381 
L 240.063662 289.711441 
L 240.388967 290.075342 
L 241.364882 290.301843 
L 241.690188 289.790801 
L 242.015493 289.660133 
L 242.340798 289.726538 
L 242.666103 290.054839 
L 242.991408 289.803857 
L 243.316713 289.079575 
L 243.642019 289.642231 
L 244.292629 287.694662 
L 244.617934 288.956354 
L 244.943239 287.530078 
L 245.268544 283.035816 
L 245.59385 288.932434 
L 245.919155 285.119561 
L 246.24446 289.489225 
L 246.569765 289.544868 
L 246.89507 289.016332 
L 247.220375 289.775704 
L 247.54568 289.573837 
L 248.196291 289.904995 
L 248.521596 289.85894 
L 248.846901 289.414609 
L 249.172206 289.765198 
L 249.497511 289.616373 
L 250.148122 289.711441 
L 250.473427 289.770655 
L 251.124037 289.490092 
L 251.449342 289.112982 
L 251.774647 289.287511 
L 252.099953 288.519622 
L 252.425258 289.238345 
L 252.750563 289.160363 
L 253.075868 289.202388 
L 253.726478 288.862612 
L 254.051784 287.111401 
L 254.377089 284.268998 
L 254.702394 288.117878 
L 255.027699 287.482442 
L 255.353004 288.700068 
L 255.678309 288.989658 
L 256.32892 288.873577 
L 256.654225 288.977265 
L 256.97953 288.86914 
L 257.304835 286.527069 
L 257.63014 288.620964 
L 257.955445 288.720622 
L 258.280751 288.979968 
L 258.606056 289.066978 
L 259.256666 288.991953 
L 259.581971 286.795187 
L 259.907276 288.274812 
L 260.557887 288.620964 
L 260.883192 287.533189 
L 261.533802 288.236611 
L 261.859107 288.441589 
L 262.184412 288.408743 
L 262.509718 288.503812 
L 263.810938 287.794728 
L 264.136243 287.759282 
L 264.461549 288.279555 
L 264.786854 288.413436 
L 265.112159 284.849301 
L 265.437464 286.125325 
L 265.762769 287.877964 
L 266.413379 287.725518 
L 266.738685 287.830124 
L 267.06399 287.502129 
L 268.36521 288.016078 
L 269.015821 287.480402 
L 269.341126 287.762444 
L 269.666431 287.267314 
L 269.991736 287.798043 
L 270.642347 287.636672 
L 270.967652 286.388292 
L 271.292957 287.717409 
L 271.618262 287.38161 
L 271.943567 287.221464 
L 272.268872 287.328976 
L 272.919483 286.944522 
L 273.244788 287.322193 
L 273.570093 287.337442 
L 274.220703 287.608162 
L 274.871314 287.637896 
L 275.196619 287.268845 
L 275.521924 284.310259 
L 275.847229 287.57649 
L 276.172534 286.878423 
L 276.497839 286.977724 
L 276.823144 287.226309 
L 277.14845 286.228859 
L 277.473755 286.070752 
L 277.79906 287.221566 
L 278.124365 286.391454 
L 278.44967 286.809672 
L 278.774975 286.388088 
L 279.100281 286.347745 
L 279.425586 286.996697 
L 279.750891 286.072741 
L 280.401501 286.406398 
L 280.726806 286.961199 
L 281.052111 285.90729 
L 281.377417 287.046373 
L 281.702722 286.843894 
L 282.028027 285.693336 
L 282.353332 286.740819 
L 282.678637 286.336066 
L 283.003942 286.639325 
L 283.329248 286.746429 
L 283.654553 285.586537 
L 283.979858 286.695937 
L 284.305163 284.895815 
L 284.630468 286.588067 
L 284.955773 285.830532 
L 285.281079 286.482136 
L 286.256994 286.428737 
L 286.907604 286.328364 
L 287.232909 286.02791 
L 287.558215 286.371002 
L 287.88352 286.161332 
L 288.208825 286.327395 
L 289.18474 286.188414 
L 289.510046 286.130476 
L 289.835351 285.502231 
L 290.160656 286.11951 
L 290.811266 285.953039 
L 291.136571 286.09406 
L 291.461876 285.973491 
L 292.763097 284.829971 
L 293.088402 284.975072 
L 293.413707 284.272007 
L 293.739013 284.110483 
L 294.064318 284.82329 
L 294.389623 284.85843 
L 294.714928 285.196575 
L 295.040233 283.389669 
L 295.365538 284.969972 
L 295.690844 284.96579 
L 296.016149 282.439447 
L 296.341454 285.133434 
L 296.666759 284.102017 
L 296.992064 284.489378 
L 297.317369 285.312044 
L 297.642674 284.529772 
L 298.293285 283.968034 
L 298.61859 284.925702 
L 298.943895 284.960894 
L 299.2692 284.680382 
L 299.594505 285.021433 
L 299.919811 285.044741 
L 300.245116 284.087736 
L 300.570421 284.684207 
L 300.895726 284.963852 
L 301.221031 284.797177 
L 301.546336 284.909381 
L 301.871641 284.900303 
L 302.196947 283.749643 
L 302.522252 284.822933 
L 302.847557 284.502333 
L 303.498167 284.611274 
L 303.823472 284.127314 
L 304.148778 284.615456 
L 304.474083 283.588935 
L 304.799388 284.461684 
L 305.124693 284.426391 
L 305.449998 283.952988 
L 306.425914 284.260634 
L 306.751219 284.089776 
L 307.076524 284.211365 
L 307.401829 284.04214 
L 307.727134 284.245945 
L 308.377745 283.926824 
L 308.70305 283.994096 
L 309.028355 279.330915 
L 309.35366 283.926671 
L 309.678965 283.464948 
L 310.00427 282.258084 
L 310.329576 283.728528 
L 310.980186 283.525845 
L 311.305491 283.688287 
L 312.281406 283.659471 
L 312.606712 283.407724 
L 313.257322 283.658757 
L 313.582627 281.995983 
L 313.907932 283.571747 
L 314.233237 283.390995 
L 314.558543 283.446231 
L 314.883848 281.369473 
L 315.534458 282.941207 
L 315.859763 282.361006 
L 316.185068 282.749337 
L 316.510373 282.927232 
L 317.160984 282.226615 
L 317.486289 277.626371 
L 317.811594 282.884187 
L 318.136899 282.400227 
L 318.462204 282.530282 
L 318.78751 282.82737 
L 319.112815 281.836908 
L 319.43812 282.720572 
L 319.763425 282.135423 
L 320.08873 282.103904 
L 320.414035 282.501415 
L 320.73934 281.995371 
L 321.389951 281.597911 
L 321.715256 275.47821 
L 322.040561 281.534108 
L 322.365866 281.252423 
L 322.691171 281.700834 
L 323.016477 280.85384 
L 323.341782 281.721541 
L 323.667087 281.332649 
L 323.992392 278.030002 
L 324.317697 281.742299 
L 324.643002 281.675435 
L 324.968308 276.262675 
L 325.293613 281.830685 
L 325.618918 280.237428 
L 325.944223 280.374012 
L 326.269528 279.694204 
L 326.594833 280.524366 
L 326.920138 280.490552 
L 327.245444 280.174389 
L 327.896054 280.481524 
L 328.221359 279.884493 
L 328.546664 279.84517 
L 328.871969 280.214885 
L 329.197275 280.106862 
L 329.52258 279.757191 
L 329.847885 280.215089 
L 330.17319 279.984763 
L 330.498495 279.360955 
L 330.8238 279.007255 
L 331.149105 277.24615 
L 331.474411 279.332802 
L 332.125021 279.929222 
L 332.450326 279.828747 
L 332.775631 279.975634 
L 333.100936 279.101507 
L 333.426242 278.754488 
L 333.751547 279.53166 
L 334.076852 279.728528 
L 334.402157 277.47265 
L 334.727462 279.204889 
L 335.378073 278.868478 
L 335.703378 279.388956 
L 336.028683 275.113442 
L 336.353988 277.707006 
L 336.679293 278.92708 
L 337.004598 279.247884 
L 337.329903 279.326835 
L 337.980514 278.929936 
L 338.305819 278.988282 
L 338.956429 277.853484 
L 339.281734 278.039336 
L 339.60704 278.077383 
L 339.932345 272.35096 
L 340.25765 269.58353 
L 340.582955 275.157865 
L 340.90826 278.50927 
L 341.233565 278.340657 
L 341.55887 277.297713 
L 341.884176 278.159242 
L 342.209481 267.903263 
L 342.534786 278.278791 
L 342.860091 277.59934 
L 343.185396 278.390792 
L 343.510701 276.31944 
L 343.836007 277.489175 
L 344.161312 272.930957 
L 344.811922 277.503813 
L 345.137227 277.442202 
L 345.462532 275.812478 
L 345.787837 277.128896 
L 346.113143 271.253852 
L 346.438448 277.197035 
L 346.763753 276.872814 
L 347.089058 277.556345 
L 347.414363 276.006134 
L 347.739668 266.834767 
L 348.390279 276.081617 
L 348.715584 275.338668 
L 349.040889 276.93575 
L 349.366194 276.745818 
L 349.691499 275.97594 
L 350.016805 271.302559 
L 350.34211 275.470764 
L 350.667415 273.06647 
L 350.99272 273.724704 
L 351.318025 274.868122 
L 351.64333 275.239214 
L 351.968635 269.828137 
L 352.293941 276.417976 
L 352.619246 276.627289 
L 352.944551 276.106863 
L 353.269856 276.738525 
L 353.595161 275.428075 
L 353.920466 271.083045 
L 354.245772 274.050506 
L 354.571077 273.355907 
L 354.896382 275.382479 
L 355.221687 275.375543 
L 355.546992 275.546553 
L 355.872297 270.720216 
L 356.197602 275.335812 
L 356.522908 272.862512 
L 356.848213 274.628054 
L 357.173518 275.219323 
L 357.498823 274.935445 
L 357.824128 268.648303 
L 358.149433 274.551194 
L 358.474739 274.203002 
L 358.800044 272.318624 
L 359.125349 273.779123 
L 359.450654 273.922796 
L 359.775959 256.929225 
L 360.101264 274.69043 
L 360.42657 274.025923 
L 360.751875 274.89143 
L 361.07718 271.878323 
L 361.402485 274.079526 
L 361.72779 266.502335 
L 362.053095 274.60898 
L 362.3784 274.743625 
L 362.703706 274.58863 
L 363.029011 273.895255 
L 363.354316 274.62275 
L 363.679621 269.467959 
L 364.004926 274.308985 
L 364.330231 274.343513 
L 364.655537 272.724959 
L 364.980842 273.844457 
L 365.631452 273.850577 
L 365.956757 274.427259 
L 366.282062 273.982418 
L 366.607367 273.043315 
L 366.932673 273.600972 
L 367.257978 273.80748 
L 367.583283 272.099213 
L 367.908588 272.25681 
L 368.233893 270.869346 
L 368.559198 273.530589 
L 368.884504 273.117115 
L 369.209809 273.951 
L 369.535114 273.158324 
L 369.860419 273.28889 
L 370.185724 272.824107 
L 370.836334 272.964975 
L 371.16164 270.953602 
L 371.81225 273.326122 
L 372.137555 272.070754 
L 372.46286 273.298529 
L 372.788165 270.908618 
L 373.113471 272.423077 
L 373.438776 273.115126 
L 373.764081 273.202696 
L 374.089386 272.585162 
L 374.414691 273.026637 
L 374.739996 272.789936 
L 375.065302 272.931365 
L 375.390607 271.690278 
L 375.715912 272.754285 
L 376.041217 272.502028 
L 376.366522 272.443274 
L 376.691827 272.500498 
L 377.017132 271.971045 
L 377.342438 271.998586 
L 377.993048 272.394108 
L 378.318353 263.100693 
L 378.643658 272.037449 
L 378.968963 272.095745 
L 379.294269 271.561701 
L 379.619574 269.04918 
L 379.944879 269.870774 
L 380.270184 269.983846 
L 380.595489 271.251251 
L 380.920794 271.799779 
L 381.246099 271.486218 
L 381.571405 270.600004 
L 381.89671 271.543085 
L 382.222015 271.131192 
L 382.54732 271.227025 
L 382.872625 270.840887 
L 383.19793 271.584346 
L 383.523236 271.502232 
L 384.173846 270.847823 
L 384.824456 267.695684 
L 385.149761 269.205961 
L 385.475066 260.154195 
L 385.800372 270.743779 
L 386.125677 268.486167 
L 386.450982 269.062288 
L 386.776287 270.692522 
L 387.101592 270.32806 
L 387.426897 263.240796 
L 387.752203 268.615764 
L 388.077508 264.464645 
L 388.402813 266.999912 
L 389.053423 266.028678 
L 389.378728 261.136242 
L 389.704034 265.122879 
L 390.029339 262.266909 
L 390.354644 260.86797 
L 390.679949 265.596077 
L 391.005254 266.438072 
L 391.330559 259.809879 
L 391.655864 267.347594 
L 391.98117 265.855117 
L 392.306475 267.901886 
L 392.63178 266.905201 
L 392.957085 268.426036 
L 393.28239 259.549768 
L 393.607695 264.870418 
L 393.933001 262.831096 
L 394.258306 264.61097 
L 394.908916 265.565884 
L 395.234221 259.227434 
L 395.559526 266.416753 
L 395.884831 266.983847 
L 396.210137 265.71685 
L 396.535442 265.755612 
L 396.860747 262.087025 
L 397.186052 261.687474 
L 397.511357 266.305467 
L 397.836662 267.725622 
L 398.161968 266.60689 
L 398.487273 266.575574 
L 398.487273 266.575574 
" clip-path="url(#p9c14ae9f5f)" style="fill: none; stroke: #ff7f0e; stroke-width: 1.5; stroke-linecap: square"/>
   </g>
   <g id="patch_3">
    <path d="M 57.6 307.584 
L 57.6 41.472 
" style="fill: none; stroke: #000000; stroke-width: 0.8; stroke-linejoin: miter; stroke-linecap: square"/>
   </g>
   <g id="patch_4">
    <path d="M 414.72 307.584 
L 414.72 41.472 
" style="fill: none; stroke: #000000; stroke-width: 0.8; stroke-linejoin: miter; stroke-linecap: square"/>
   </g>
   <g id="patch_5">
    <path d="M 57.6 307.584 
L 414.72 307.584 
" style="fill: none; stroke: #000000; stroke-width: 0.8; stroke-linejoin: miter; stroke-linecap: square"/>
   </g>
   <g id="patch_6">
    <path d="M 57.6 41.472 
L 414.72 41.472 
" style="fill: none; stroke: #000000; stroke-width: 0.8; stroke-linejoin: miter; stroke-linecap: square"/>
   </g>
   <g id="text_14">
    <!-- Tiempo de ejecucion de los metodos -->
    <g transform="translate(126.241875 35.472) scale(0.12 -0.12)">
     <defs>
      <path id="DejaVuSans-6a" d="M 603 3500 
L 1178 3500 
L 1178 -63 
Q 1178 -731 923 -1031 
Q 669 -1331 103 -1331 
L -116 -1331 
L -116 -844 
L 38 -844 
Q 366 -844 484 -692 
Q 603 -541 603 -63 
L 603 3500 
z
M 603 4863 
L 1178 4863 
L 1178 4134 
L 603 4134 
L 603 4863 
z
" transform="scale(0.015625)"/>
      <path id="DejaVuSans-63" d="M 3122 3366 
L 3122 2828 
Q 2878 2963 2633 3030 
Q 2388 3097 2138 3097 
Q 1578 3097 1268 2742 
Q 959 2388 959 1747 
Q 959 1106 1268 751 
Q 1578 397 2138 397 
Q 2388 397 2633 464 
Q 2878 531 3122 666 
L 3122 134 
Q 2881 22 2623 -34 
Q 2366 -91 2075 -91 
Q 1284 -91 818 406 
Q 353 903 353 1747 
Q 353 2603 823 3093 
Q 1294 3584 2113 3584 
Q 2378 3584 2631 3529 
Q 2884 3475 3122 3366 
z
" transform="scale(0.015625)"/>
      <path id="DejaVuSans-75" d="M 544 1381 
L 544 3500 
L 1119 3500 
L 1119 1403 
Q 1119 906 1312 657 
Q 1506 409 1894 409 
Q 2359 409 2629 706 
Q 2900 1003 2900 1516 
L 2900 3500 
L 3475 3500 
L 3475 0 
L 2900 0 
L 2900 538 
Q 2691 219 2414 64 
Q 2138 -91 1772 -91 
Q 1169 -91 856 284 
Q 544 659 544 1381 
z
M 1991 3584 
L 1991 3584 
z
" transform="scale(0.015625)"/>
      <path id="DejaVuSans-74" d="M 1172 4494 
L 1172 3500 
L 2356 3500 
L 2356 3053 
L 1172 3053 
L 1172 1153 
Q 1172 725 1289 603 
Q 1406 481 1766 481 
L 2356 481 
L 2356 0 
L 1766 0 
Q 1100 0 847 248 
Q 594 497 594 1153 
L 594 3053 
L 172 3053 
L 172 3500 
L 594 3500 
L 594 4494 
L 1172 4494 
z
" transform="scale(0.015625)"/>
     </defs>
     <use xlink:href="#DejaVuSans-54"/>
     <use xlink:href="#DejaVuSans-69" x="57.958984"/>
     <use xlink:href="#DejaVuSans-65" x="85.742188"/>
     <use xlink:href="#DejaVuSans-6d" x="147.265625"/>
     <use xlink:href="#DejaVuSans-70" x="244.677734"/>
     <use xlink:href="#DejaVuSans-6f" x="308.154297"/>
     <use xlink:href="#DejaVuSans-20" x="369.335938"/>
     <use xlink:href="#DejaVuSans-64" x="401.123047"/>
     <use xlink:href="#DejaVuSans-65" x="464.599609"/>
     <use xlink:href="#DejaVuSans-20" x="526.123047"/>
     <use xlink:href="#DejaVuSans-65" x="557.910156"/>
     <use xlink:href="#DejaVuSans-6a" x="619.433594"/>
     <use xlink:href="#DejaVuSans-65" x="647.216797"/>
     <use xlink:href="#DejaVuSans-63" x="708.740234"/>
     <use xlink:href="#DejaVuSans-75" x="763.720703"/>
     <use xlink:href="#DejaVuSans-63" x="827.099609"/>
     <use xlink:href="#DejaVuSans-69" x="882.080078"/>
     <use xlink:href="#DejaVuSans-6f" x="909.863281"/>
     <use xlink:href="#DejaVuSans-6e" x="971.044922"/>
     <use xlink:href="#DejaVuSans-20" x="1034.423828"/>
     <use xlink:href="#DejaVuSans-64" x="1066.210938"/>
     <use xlink:href="#DejaVuSans-65" x="1129.6875"/>
     <use xlink:href="#DejaVuSans-20" x="1191.210938"/>
     <use xlink:href="#DejaVuSans-6c" x="1222.998047"/>
     <use xlink:href="#DejaVuSans-6f" x="1250.78125"/>
     <use xlink:href="#DejaVuSans-73" x="1311.962891"/>
     <use xlink:href="#DejaVuSans-20" x="1364.0625"/>
     <use xlink:href="#DejaVuSans-6d" x="1395.849609"/>
     <use xlink:href="#DejaVuSans-65" x="1493.261719"/>
     <use xlink:href="#DejaVuSans-74" x="1554.785156"/>
     <use xlink:href="#DejaVuSans-6f" x="1593.994141"/>
     <use xlink:href="#DejaVuSans-64" x="1655.175781"/>
     <use xlink:href="#DejaVuSans-6f" x="1718.652344"/>
     <use xlink:href="#DejaVuSans-73" x="1779.833984"/>
    </g>
   </g>
   <g id="legend_1">
    <g id="patch_7">
     <path d="M 64.6 78.82825 
L 143.428125 78.82825 
Q 145.428125 78.82825 145.428125 76.82825 
L 145.428125 48.472 
Q 145.428125 46.472 143.428125 46.472 
L 64.6 46.472 
Q 62.6 46.472 62.6 48.472 
L 62.6 76.82825 
Q 62.6 78.82825 64.6 78.82825 
z
" style="fill: #ffffff; opacity: 0.8; stroke: #cccccc; stroke-linejoin: miter"/>
    </g>
    <g id="line2d_14">
     <path d="M 66.6 54.570437 
L 76.6 54.570437 
L 86.6 54.570437 
" style="fill: none; stroke: #1f77b4; stroke-width: 1.5; stroke-linecap: square"/>
    </g>
    <g id="text_15">
     <!-- Metodo 1 -->
     <g transform="translate(94.6 58.070437) scale(0.1 -0.1)">
      <defs>
       <path id="DejaVuSans-4d" d="M 628 4666 
L 1569 4666 
L 2759 1491 
L 3956 4666 
L 4897 4666 
L 4897 0 
L 4281 0 
L 4281 4097 
L 3078 897 
L 2444 897 
L 1241 4097 
L 1241 0 
L 628 0 
L 628 4666 
z
" transform="scale(0.015625)"/>
      </defs>
      <use xlink:href="#DejaVuSans-4d"/>
      <use xlink:href="#DejaVuSans-65" x="86.279297"/>
      <use xlink:href="#DejaVuSans-74" x="147.802734"/>
      <use xlink:href="#DejaVuSans-6f" x="187.011719"/>
      <use xlink:href="#DejaVuSans-64" x="248.193359"/>
      <use xlink:href="#DejaVuSans-6f" x="311.669922"/>
      <use xlink:href="#DejaVuSans-20" x="372.851562"/>
      <use xlink:href="#DejaVuSans-31" x="404.638672"/>
     </g>
    </g>
    <g id="line2d_15">
     <path d="M 66.6 69.248562 
L 76.6 69.248562 
L 86.6 69.248562 
" style="fill: none; stroke: #ff7f0e; stroke-width: 1.5; stroke-linecap: square"/>
    </g>
    <g id="text_16">
     <!-- Metodo 2 -->
     <g transform="translate(94.6 72.748562) scale(0.1 -0.1)">
      <use xlink:href="#DejaVuSans-4d"/>
      <use xlink:href="#DejaVuSans-65" x="86.279297"/>
      <use xlink:href="#DejaVuSans-74" x="147.802734"/>
      <use xlink:href="#DejaVuSans-6f" x="187.011719"/>
      <use xlink:href="#DejaVuSans-64" x="248.193359"/>
      <use xlink:href="#DejaVuSans-6f" x="311.669922"/>
      <use xlink:href="#DejaVuSans-20" x="372.851562"/>
      <use xlink:href="#DejaVuSans-32" x="404.638672"/>
     </g>
    </g>
   </g>
  </g>
 </g>
 <defs>
  <clipPath id="p9c14ae9f5f">
   <rect x="57.6" y="41.472" width="357.12" height="266.112"/>
  </clipPath>
 </defs>
</svg>
